SplineFontDB: 3.2
FontName: Roland
FullName: Roland
FamilyName: Roland
Weight: Regular
Copyright: Copyright (c) 2020, Roland Bernard
UComments: "2020-7-24: Created with FontForge (http://fontforge.org)"
Version: 001.000
ItalicAngle: 0
UnderlinePosition: -95
UnderlineWidth: 47
Ascent: 800
Descent: 200
InvalidEm: 0
LayerCount: 2
Layer: 0 0 "Back" 1
Layer: 1 0 "Fore" 0
XUID: [1021 36 1614478912 1887134]
FSType: 0
OS2Version: 0
OS2_WeightWidthSlopeOnly: 0
OS2_UseTypoMetrics: 1
CreationTime: 1595591488
ModificationTime: 1595761074
PfmFamily: 17
TTFWeight: 400
TTFWidth: 5
LineGap: 86
VLineGap: 0
OS2TypoAscent: 0
OS2TypoAOffset: 1
OS2TypoDescent: 0
OS2TypoDOffset: 1
OS2TypoLinegap: 86
OS2WinAscent: 0
OS2WinAOffset: 1
OS2WinDescent: 0
OS2WinDOffset: 1
HheadAscent: 0
HheadAOffset: 1
HheadDescent: 0
HheadDOffset: 1
OS2Vendor: 'PfEd'
Lookup: 258 0 0 "'kern' Horizontal Kerning lookup 0" { "'kern' Horizontal Kerning lookup 0 sub-table" [100,15,0] } ['kern' ('DFLT' <'dflt' > 'latn' <'dflt' > ) ]
MarkAttachClasses: 1
DEI: 91125
KernClass2: 8 5 "'kern' Horizontal Kerning lookup 0 sub-table"
 13 slash T V W Y
 3 A M
 35 a b c e h k m n o p r s u v w x y z
 3 g q
 173 zero one two three four five six seven eight nine at B C D E F G H I J K L N O P Q R S U X Z d f i l t Adieresis Odieresis Udieresis germandbls adieresis odieresis udieresis
 9 backslash
 1 j
 35 a c d e g m n o p q r s u v w x y z
 17 T V W Y backslash
 9 slash A M
 1 j
 0 {} 0 {} 0 {} 0 {} 0 {} 0 {} -100 {} 0 {} -100 {} -50 {} 0 {} 0 {} -100 {} 0 {} -100 {} 0 {} 0 {} -100 {} 0 {} -100 {} 0 {} 0 {} -100 {} 0 {} 0 {} 0 {} 0 {} 0 {} 0 {} -100 {} 0 {} 0 {} -100 {} 0 {} 0 {} 0 {} 0 {} 0 {} 0 {} -50 {}
LangName: 1033
Encoding: ISO8859-1
UnicodeInterp: none
NameList: AGL For New Fonts
DisplaySize: -48
AntiAlias: 1
FitToEm: 0
WidthSeparation: 142
WinInfo: 0 38 15
BeginPrivate: 1
BlueValues 31 [-15 1 450 450 735 735 750 765]
EndPrivate

StartChar: O
Encoding: 79 79 0
Width: 824
VWidth: 950
Flags: W
HStem: -15 75<308.653 515.347> 690 75<308.653 515.347>
VStem: 30 80<262.462 487.538> 714 80<262.462 487.538>
LayerCount: 2
Fore
SplineSet
412 765 m 0
 619 765 794 582 794 375 c 4
 794 168 619 -15 412 -15 c 0
 205 -15 30 168 30 375 c 0
 30 582 205 765 412 765 c 0
412 690 m 0
 246 690 110 541 110 375 c 0
 110 209 246 60 412 60 c 0
 578 60 714 209 714 375 c 0
 714 541 578 690 412 690 c 0
EndSplineSet
Validated: 1
EndChar

StartChar: o
Encoding: 111 111 1
Width: 524
Flags: W
HStem: -15 75<187.975 336.025> 375 75<187.975 336.025>
VStem: 30 80<140.505 295.307> 414 80<140.505 295.307>
LayerCount: 2
Fore
SplineSet
262 450 m 4
 386 450 494 342 494 218 c 4
 494 94 386 -15 262 -15 c 4
 138 -15 30 94 30 218 c 4
 30 342 138 450 262 450 c 4
262 375 m 4
 179 375 110 301 110 218 c 4
 110 135 179 60 262 60 c 4
 345 60 414 135 414 218 c 4
 414 301 345 375 262 375 c 4
EndSplineSet
Validated: 1
EndChar

StartChar: A
Encoding: 65 65 2
Width: 682
VWidth: 950
Flags: W
HStem: 0 21G<30 120.273 562.655 653> 275 75<241 442> 730 20G<297.667 423.5>
LayerCount: 2
Fore
SplineSet
305 750 m 5
 378 750 l 5
 469 500 561 250 653 0 c 5
 570 0 l 5
 469 275 l 5
 213 275 l 5
 113 0 l 5
 113 0 30 0 30 0 c 5
 305 750 l 5
341 624 m 5
 241 350 l 5
 442 350 l 5
 341 624 l 5
EndSplineSet
Validated: 1
EndChar

StartChar: a
Encoding: 97 97 3
Width: 535
VWidth: 950
Flags: W
HStem: -15 75<185.159 324.644> 0 21G<400 480> 375 75<185.159 325.987>
VStem: 30 80<139.307 296.495> 400 80<0 60 138.852 296.875 375 435>
LayerCount: 2
Fore
SplineSet
255 375 m 0xb8
 174 375 110 299 110 218 c 0
 110 137 174 60 255 60 c 0
 336 60 400 137 400 218 c 0
 400 299 336 375 255 375 c 0xb8
240 450 m 0
 305 450 369 420 400 375 c 1
 400 435 l 1
 480 435 l 1
 480 0 l 1
 400 0 l 1x78
 400 60 l 1
 369 15 305 -15 240 -15 c 0
 116 -15 30 94 30 218 c 0
 30 342 116 450 240 450 c 0
EndSplineSet
Validated: 1
EndChar

StartChar: b
Encoding: 98 98 4
Width: 540
VWidth: 950
Flags: W
HStem: -15 74.998<215.416 354.707> 0 21G<60 139.998> 374.996 75.0039<215.416 354.707> 715 20G<60 139.998>
VStem: 60 79.998<0 60.0527 139.049 296.676 374.949 735> 430.002 79.998<139.448 296.354>
LayerCount: 2
Fore
SplineSet
300 450 m 0x7c
 423.790039062 450 510 341.790039062 510 218 c 0
 510 94.2099609375 423.790039062 -15 300 -15 c 0xbc
 234.65234375 -15 171.1953125 15.2119140625 139.998046875 60.052734375 c 1
 139.998046875 0 l 1
 60 0 l 1
 60 735 l 1
 139.998046875 735 l 1
 139.998046875 374.94921875 l 1
 171.1953125 419.790039062 234.65234375 450 300 450 c 0x7c
285 374.99609375 m 0
 204.4453125 374.99609375 139.998046875 298.5546875 139.998046875 218 c 0
 139.998046875 137.4453125 204.4453125 59.998046875 285 59.998046875 c 0
 365.5546875 59.998046875 430.001953125 137.4453125 430.001953125 218 c 0
 430.001953125 298.5546875 365.5546875 374.99609375 285 374.99609375 c 0
EndSplineSet
Validated: 1
EndChar

StartChar: c
Encoding: 99 99 5
Width: 442
VWidth: 950
Flags: W
HStem: -15 74.998<190.366 370.338> 374.998 75.0039<190.16 365.461>
VStem: 30 79.998<143.75 292.073>
LayerCount: 2
Fore
SplineSet
262 450.001953125 m 0
 308.16796875 450.001953125 361.19140625 435.918945312 397 411.841796875 c 1
 397 336.21875 l 1
 359.420898438 363.720703125 315.48828125 374.998046875 262 374.998046875 c 0
 181.444335938 374.998046875 109.998046875 298.556640625 109.998046875 218.001953125 c 0
 109.998046875 137.447265625 181.693359375 59.998046875 262.248046875 59.998046875 c 0
 315.737304688 59.998046875 366.99609375 71.8974609375 402.248046875 98.783203125 c 1
 402.248046875 23.162109375 l 1
 366.440429688 -0.9150390625 308.416992188 -15 262.248046875 -15 c 0
 138.458007812 -15 30 94.2119140625 30 218.001953125 c 0
 30 341.791992188 138.208984375 450.001953125 262 450.001953125 c 0
EndSplineSet
Validated: 1
EndChar

StartChar: d
Encoding: 100 100 6
Width: 535
VWidth: 950
Flags: W
HStem: -15 74.998<185.293 324.584> 0 21G<400.002 480> 374.996 75.0039<185.293 324.584> 715 20G<400.002 480>
VStem: 30 79.998<139.448 296.354> 400.002 79.998<0 68.0527 139.049 296.676 374.949 735>
LayerCount: 2
Fore
SplineSet
240 450 m 0xbc
 305.34765625 450 368.8046875 419.790039062 400.001953125 374.94921875 c 1
 400.001953125 735 l 1
 480 735 l 1
 480 0 l 1
 400.001953125 0 l 1x7c
 400.001953125 68.052734375 l 1
 368.8046875 23.2119140625 305.34765625 -15 240 -15 c 0
 116.209960938 -15 30 94.2099609375 30 218 c 0
 30 341.790039062 116.209960938 450 240 450 c 0xbc
255 374.99609375 m 0
 174.4453125 374.99609375 109.998046875 298.5546875 109.998046875 218 c 0
 109.998046875 137.4453125 174.4453125 59.998046875 255 59.998046875 c 0xbc
 335.5546875 59.998046875 400.001953125 137.4453125 400.001953125 218 c 0
 400.001953125 298.5546875 335.5546875 374.99609375 255 374.99609375 c 0
EndSplineSet
Validated: 1
EndChar

StartChar: e
Encoding: 101 101 7
Width: 510
VWidth: 950
Flags: W
HStem: -15 67<193.534 330.311> 218 60<121 401> 383 67<189.061 328.404>
VStem: 30 80<140.118 218>
LayerCount: 2
Fore
SplineSet
262 450 m 4
 386 450 480 338 480 242 c 6
 480 218 l 5
 446 218 l 5
 414 218 l 5
 110 218 l 5
 110 137 179 52 260 52 c 4
 314 52 370 94 401 138 c 5
 466 103 l 5
 427 35 345 -15 262 -15 c 4
 138 -15 30 94 30 218 c 4
 30 342 138 450 262 450 c 4
258 383 m 4
 198 383 142 333 121 278 c 5
 401 278 l 5
 378 333 318 383 258 383 c 4
EndSplineSet
Validated: 1
EndChar

StartChar: f
Encoding: 102 102 8
Width: 321
VWidth: 950
Flags: W
HStem: 0 21G<105 185> 375 60<30 105 185 285> 675 75<199.367 276.334>
VStem: 105 80<0 375 435 661.368>
LayerCount: 2
Fore
SplineSet
239 750 m 1
 252 750 276 748 292 739 c 1
 273 669 l 1
 254 675 247 675 241 675 c 0
 202 675 185 639 185 600 c 2
 185 435 l 1
 285 435 l 1
 285 375 l 1
 185 375 l 1
 185 0 l 1
 105 0 l 1
 105 375 l 1
 30 375 l 1
 30 435 l 1
 105 435 l 1
 105 600 l 2
 105 682 157 750 239 750 c 1
EndSplineSet
Validated: 1
EndChar

StartChar: g
Encoding: 103 103 9
Width: 540
VWidth: 950
Flags: W
HStem: -200 80.0039<190.264 341.286> -32.5234 20G<50.3013 133.461> -14.998 74.998<195.293 334.584> 374.998 75.0039<195.293 334.584>
VStem: 40 79.998<139.45 296.355> 410.002 79.998<-50.397 65.0547 139.051 296.678 374.951 435.002>
LayerCount: 2
Fore
SplineSet
250 450.001953125 m 0xbc
 315.34765625 450.001953125 378.8046875 419.791992188 410.001953125 374.951171875 c 1
 410.001953125 435.001953125 l 1
 490 435.001953125 l 1
 490 25 l 2
 490 -98.7900390625 388.790039062 -200 265 -200 c 0
 163.356445312 -200 73.9765625 -131.409179688 47.669921875 -33.228515625 c 1
 124.943359375 -12.5234375 l 1xdc
 141.978515625 -76.1025390625 199.178710938 -119.99609375 265 -119.99609375 c 0
 345.5546875 -119.99609375 410.001953125 -55.5546875 410.001953125 25 c 2
 410.001953125 65.0546875 l 1
 378.8046875 20.2138671875 315.34765625 -14.998046875 250 -14.998046875 c 0
 126.209960938 -14.998046875 40 94.2119140625 40 218.001953125 c 0
 40 341.791992188 126.209960938 450.001953125 250 450.001953125 c 0xbc
265 374.998046875 m 0
 184.4453125 374.998046875 119.998046875 298.556640625 119.998046875 218.001953125 c 0
 119.998046875 137.447265625 184.4453125 60 265 60 c 0xbc
 345.5546875 60 410.001953125 137.447265625 410.001953125 218.001953125 c 0
 410.001953125 298.556640625 345.5546875 374.998046875 265 374.998046875 c 0
EndSplineSet
Validated: 1
EndChar

StartChar: h
Encoding: 104 104 10
Width: 517
VWidth: 950
Flags: W
HStem: 0 21G<60 140 383 463> 382.165 69.8347<196.76 337.818> 715 20G<60 140>
VStem: 60 80<0 336.846 381 735> 383 80<0 336.522>
LayerCount: 2
Fore
SplineSet
285 452 m 0
 383 452 463 370 463 270 c 2
 463 0 l 1
 383 0 l 1
 383 275 l 2
 383 333 336 380 284 382 c 0
 281.178024147 382.104517624 278.214037155 382.165339513 275.130873896 382.165339513 c 0
 248.715057601 382.165339513 213.550918402 377.700612268 184 358 c 0
 156 340 140 305 140 276 c 2
 140 0 l 1
 60 0 l 1
 60 150 60 585 60 735 c 1
 140 735 l 1
 140 381 l 1
 173 428 228 452 285 452 c 0
EndSplineSet
Validated: 1
EndChar

StartChar: i
Encoding: 105 105 11
Width: 230
VWidth: 950
Flags: W
HStem: 0.00195312 21G<75.0039 155.002> 615 110<71.737 158.263>
VStem: 60 110<626.737 713.263> 75.0039 79.998<0.00195312 435.002>
LayerCount: 2
Fore
SplineSet
115 725 m 0xe0
 145.35546875 725 170 700.35546875 170 670 c 0
 170 639.64453125 145.35546875 615 115 615 c 0
 84.64453125 615 60 639.64453125 60 670 c 0
 60 700.35546875 84.64453125 725 115 725 c 0xe0
75.00390625 435.001953125 m 5xd0
 155.001953125 435.001953125 l 5
 155.001953125 0.001953125 l 5
 75.00390625 0.001953125 l 5
 75.00390625 435.001953125 l 5xd0
EndSplineSet
Validated: 1
EndChar

StartChar: j
Encoding: 106 106 12
Width: 317
VWidth: 950
Flags: W
HStem: -200 75.002<30 101.981> 615 110<171.725 258.264>
VStem: 159.994 110<626.731 713.269> 174.998 79.998<-51.7638 25 25.002 435.002>
LayerCount: 2
Fore
SplineSet
214.994140625 725 m 0xe0
 245.370117188 725 269.994140625 700.375976562 269.994140625 670 c 0
 269.994140625 639.624023438 245.370117188 615 214.994140625 615 c 0
 184.618164062 615 159.994140625 639.624023438 159.994140625 670 c 0
 159.994140625 700.375976562 184.618164062 725 214.994140625 725 c 0xe0
174.998046875 435.001953125 m 5xd0
 254.99609375 435.001953125 l 5
 254.99609375 25.001953125 l 1
 174.998046875 25.001953125 l 1
 174.998046875 435.001953125 l 5xd0
174.99609375 25 m 1
 255 25 l 1
 255 -98.7900390625 153.790039062 -200 30 -200 c 1
 30 -124.998046875 l 1
 110.5546875 -124.998046875 174.99609375 -55.5546875 174.99609375 25 c 1
EndSplineSet
Validated: 1
EndChar

StartChar: k
Encoding: 107 107 13
Width: 503
VWidth: 950
Flags: W
HStem: -0 21G<60 140 336.333 463> 715 20G<60 140>
VStem: 60 80<0 210 276 735>
LayerCount: 2
Fore
SplineSet
60 735 m 1
 140 735 l 1
 140 276 l 1
 307 435 l 1
 413 435 l 1
 213 243 l 1
 463 -0 l 1
 357 -0 l 1
 140 210 l 1
 140 0 l 1
 60 0 l 1
 60 735 l 1
EndSplineSet
Validated: 1
EndChar

StartChar: l
Encoding: 108 108 14
Width: 199
VWidth: 950
Flags: W
HStem: 0.00292969 21G<60 139.997> 715 20G<60 139.997>
VStem: 60 79.9971<0.00292969 735>
LayerCount: 2
Fore
SplineSet
60 735 m 1
 139.997070312 735 l 1
 139.997070312 0.0029296875 l 1
 60 0.0029296875 l 1
 60 735 l 1
EndSplineSet
Validated: 1
EndChar

StartChar: m
Encoding: 109 109 15
Width: 835
VWidth: 950
Flags: W
HStem: 1 21G<55 135 378 458 700 780> 383.14 69.8602<191.968 333.426 514.631 655.726>
VStem: 55 80<1 337.403 381 436> 378 80<1 336.193> 700 80<1 337.11>
LayerCount: 2
Fore
SplineSet
280 453 m 0
 350 453 411 411 439 351 c 1
 445 362 451 372 458 381 c 0
 491 429 546 453 603 453 c 0
 701 453 780 370 780 271 c 2
 780 1 l 1
 700 1 l 1
 700 276 l 2
 700 333 654 380 601 383 c 0
 598.563784307 383.090230211 596.021729231 383.139752967 593.389261551 383.139752967 c 0
 566.846715059 383.139752967 531.112633253 378.105165572 502 359 c 0
 474 340 458 306 458 277 c 2
 458 271 l 1
 458 1 l 1
 378 1 l 1
 378 101 377.555555556 88.1111111111 377.555555556 113.148148148 c 0
 377.555555556 125.666666667 377.666666667 147.666666667 378 198 c 2
 378 276 l 2
 378 333 331 380 279 383 c 0
 276.563784307 383.090230211 274.021729231 383.139752967 271.388526942 383.139752967 c 0
 244.838573568 383.139752967 209.022403042 378.105165572 179 359 c 0
 151 340 135 306 135 277 c 2
 135 1 l 1
 55 1 l 1
 55 151 55 285 55 436 c 1
 135 436 l 1
 135 381 l 1
 168 429 223 453 280 453 c 0
EndSplineSet
Validated: 1
EndChar

StartChar: n
Encoding: 110 110 16
Width: 513
VWidth: 950
Flags: W
HStem: 1 21G<55 135 378 458> 383 70<191.968 332.818>
VStem: 55 80<1 337.403 381 436> 378 80<1 337.11>
LayerCount: 2
Fore
SplineSet
280 453 m 0
 378 453 458 370 458 271 c 2
 458 1 l 1
 378 1 l 1
 378 276 l 2
 378 333 331 380 279 383 c 0
 277 383 274 383 271 383 c 0
 245 383 209 378 179 359 c 0
 151 340 135 306 135 277 c 2
 135 1 l 1
 55 1 l 1
 55 151 55 285 55 436 c 1
 135 436 l 1
 135 381 l 1
 168 429 223 453 280 453 c 0
EndSplineSet
Validated: 1
EndChar

StartChar: p
Encoding: 112 112 17
Width: 540
VWidth: 950
Flags: W
HStem: -15 74.998<215.416 354.707> 374.996 75.0039<215.416 354.707>
VStem: 60 79.998<-200 65.0527 139.049 296.676 374.949 435> 430.002 79.998<139.448 296.354>
LayerCount: 2
Fore
SplineSet
300 450 m 0
 423.790039062 450 510 341.790039062 510 218 c 4
 510 94.2099609375 423.790039062 -15 300 -15 c 0
 234.65234375 -15 171.1953125 20.2119140625 139.998046875 65.052734375 c 1
 139.998046875 -200 l 1
 60 -200 l 1
 60 435 l 1
 139.998046875 435 l 1
 139.998046875 374.94921875 l 1
 171.1953125 419.790039062 234.65234375 450 300 450 c 0
285 374.99609375 m 0
 204.4453125 374.99609375 139.998046875 298.5546875 139.998046875 218 c 4
 139.998046875 137.4453125 204.4453125 59.998046875 285 59.998046875 c 0
 365.5546875 59.998046875 430.001953125 137.4453125 430.001953125 218 c 4
 430.001953125 298.5546875 365.5546875 374.99609375 285 374.99609375 c 0
EndSplineSet
Validated: 1
EndChar

StartChar: q
Encoding: 113 113 18
Width: 540
VWidth: 950
Flags: W
HStem: -15 74.998<185.293 324.584> 374.996 75.0039<185.293 324.584>
VStem: 30 79.998<139.448 296.354> 400.002 79.998<-200 65.0527 139.049 296.676 374.949 435>
LayerCount: 2
Fore
SplineSet
240 450 m 0
 305.34765625 450 368.8046875 419.790039062 400.001953125 374.94921875 c 1
 400.001953125 435 l 1
 480 435 l 1
 480 -200 l 1
 400.001953125 -200 l 1
 400.001953125 65.052734375 l 1
 368.8046875 20.2119140625 305.34765625 -15 240 -15 c 0
 116.209960938 -15 30 94.2099609375 30 218 c 0
 30 341.790039062 116.209960938 450 240 450 c 0
255 374.99609375 m 0
 174.4453125 374.99609375 109.998046875 298.5546875 109.998046875 218 c 0
 109.998046875 137.4453125 174.4453125 59.998046875 255 59.998046875 c 0
 335.5546875 59.998046875 400.001953125 137.4453125 400.001953125 218 c 0
 400.001953125 298.5546875 335.5546875 374.99609375 255 374.99609375 c 0
EndSplineSet
Validated: 1
EndChar

StartChar: r
Encoding: 114 114 19
Width: 342
VWidth: 950
Flags: W
HStem: 1 21G<55 135> 383.364 69.636<191.55 294.434>
VStem: 55 80<1 337.403 381 436>
LayerCount: 2
Fore
SplineSet
280 453 m 0
 291 453 302 451 313 448 c 1
 293 381 l 1
 288 382 282 382 280 383 c 0
 276.171744602 383.239265962 272.228992803 383.364035523 268.204276274 383.364035523 c 0
 238.586794058 383.364035523 204.530643546 376.607340376 179 359 c 0
 151 340 135 306 135 277 c 2
 135 1 l 1
 55 1 l 1
 55 151 55 285 55 436 c 1
 135 436 l 1
 135 381 l 1
 168 429 223 453 280 453 c 0
EndSplineSet
Validated: 1
EndChar

StartChar: s
Encoding: 115 115 20
Width: 422
VWidth: 950
Flags: W
HStem: -14 73<159.315 274.756> 381 69<161.545 275.47>
VStem: 67 83<292.995 369.066> 291 81<74.4284 158.619>
LayerCount: 2
Fore
SplineSet
217 450 m 2
 253 450 285 443 311 428 c 0
 337 413 356 392 367 366 c 2
 369 361 l 1
 303 320 l 1
 300 326 l 2
 292 344 281 357 266 367 c 2
 251 376 233 381 213 381 c 0
 193 381 178 376 167 365 c 2
 155 355 150 342 150 326 c 0
 150 316 155 306 167 296 c 0
 180 287 200 277 226 269 c 2
 236 266 244 263 250 262 c 2
 295 247 326 231 344 211 c 0
 363 192 372 159 372 128 c 0
 372 88 358 48 329 23 c 1
 301 -2 263 -14 218 -14 c 0
 179 -14 146 -7 119 8 c 2
 91 23 69 45 53 75 c 2
 50 80 l 1
 120 126 l 1
 123 127 l 2
 134 106 147 84 163 74 c 2
 179 64 198 59 221 59 c 0
 243 59 259 64 272 74 c 2
 283 83 290 101 291 115 c 0
 291 116 291 117 291 118 c 0
 291 119 291 120 291 121 c 0
 291 122 291 123 291 123 c 0
 291 135 286 151 278 159 c 2
 270 168 254 176 231 184 c 2
 229 185 225 186 220 188 c 2
 170 205 132 225 107 247 c 0
 81 269 67 294 67 322 c 0
 67 359 82 391 109 414 c 0
 137 438 173 450 217 450 c 2
EndSplineSet
Validated: 1
EndChar

StartChar: t
Encoding: 116 116 21
Width: 314
VWidth: 950
Flags: W
HStem: 0 21G<105 185> 375 60<30 105 185 285> 715 20G<105 185>
VStem: 105 80<0 375 435 735>
LayerCount: 2
Fore
SplineSet
105 735 m 1
 185 735 l 1
 185 435 l 1
 285 435 l 1
 285 375 l 1
 185 375 l 1
 185 0 l 1
 105 0 l 1
 105 375 l 1
 30 375 l 1
 30 435 l 1
 105 435 l 1
 105 735 l 1
EndSplineSet
Validated: 1
EndChar

StartChar: u
Encoding: 117 117 22
Width: 504
VWidth: 950
Flags: W
HStem: -15 75<174.124 329.876>
VStem: 55 80<101.183 435> 369 80<101.183 435>
LayerCount: 2
Fore
SplineSet
55 435 m 1
 135 435 l 1
 135 175 l 2
 135 105 177 60 230 60 c 2
 274 60 l 2
 327 60 369 105 369 175 c 2
 369 435 l 1
 449 435 l 1
 449 175 l 6
 449 60 370 -15 274 -15 c 2
 230 -15 l 2
 134 -15 55 60 55 175 c 2
 55 435 l 1
EndSplineSet
Validated: 1
EndChar

StartChar: v
Encoding: 118 118 23
Width: 534
VWidth: 950
Flags: W
HStem: 0 21G<220.805 313.195>
LayerCount: 2
Fore
SplineSet
30 435 m 1
 118 435 l 1
 267 113 l 1
 416 435 l 1
 504 435 l 1
 304 0 l 1
 230 0 l 1
 30 435 l 1
EndSplineSet
Validated: 1
EndChar

StartChar: w
Encoding: 119 119 24
Width: 920
VWidth: 950
Flags: W
HStem: 0 21G<220.783 313.286 607.655 699.263>
LayerCount: 2
Fore
SplineSet
30 434 m 1
 118 434 l 1
 267 113 l 1
 416 434 l 1
 421 434 l 1
 504 434 l 1
 654 113 l 1
 803 434 l 5
 891 434 l 1
 690 0 l 1
 617 0 l 1
 460 336 l 1
 304 0 l 1
 230 0 l 1
 30 434 l 1
EndSplineSet
Validated: 1
EndChar

StartChar: x
Encoding: 120 120 25
Width: 548
VWidth: 950
Flags: W
HStem: 0 21G<40 157.07 390.93 508>
LayerCount: 2
Fore
SplineSet
40 435 m 1
 140 435 l 1
 274 279 l 1
 408 435 l 1
 508 435 l 1
 324 218 l 1
 508 0 l 1
 408 0 l 1
 274 157 l 1
 140 0 l 1
 40 0 l 1
 224 218 l 1
 40 435 l 1
EndSplineSet
Validated: 1
EndChar

StartChar: y
Encoding: 121 121 26
Width: 494
VWidth: 950
Flags: W
LayerCount: 2
Fore
SplineSet
30 435 m 1
 114 435 l 1
 239 146 l 1
 379 435 l 1
 465 435 l 1
 457 419 l 1
 165 -200 l 1
 79 -200 l 1
 87 -184 l 1
 194 49 l 1
 36 420 l 1
 30 435 l 1
EndSplineSet
Validated: 1
EndChar

StartChar: z
Encoding: 122 122 27
Width: 474
VWidth: 950
Flags: W
HStem: 0 75<164 434> 360 75<40 310>
LayerCount: 2
Fore
SplineSet
40 435 m 1
 78 435 l 1
 434 435 l 1
 434 384 l 1
 164 75 l 1
 396 75 l 1
 434 75 l 1
 434 0 l 1
 396 0 l 1
 40 0 l 1
 40 51 l 1
 310 360 l 1
 78 360 l 1
 40 360 l 1
 40 435 l 1
EndSplineSet
Validated: 1
EndChar

StartChar: B
Encoding: 66 66 28
Width: 558
VWidth: 950
Flags: W
HStem: 0 75<147 373.602> 347 75<147 351.729> 672 78<147 348.463>
VStem: 67 80<75 347 422 672> 405 80<477.588 617.173> 438 80<139.439 284.315>
LayerCount: 2
Fore
SplineSet
67 750 m 1xf4
 119 750 l 1
 147 750 l 1
 244 750 l 1
 270 750 l 1
 284 750 l 2
 395 750 485 659 485 548 c 0xf8
 485 487 458 432 415 394 c 1
 477 357 518 289 518 212 c 0
 518 96 423 0 306 0 c 2
 279 0 l 1
 147 0 l 1
 67 0 l 1
 67 750 l 1xf4
147 672 m 1
 147 422 l 1
 266 422 l 1
 284 422 l 2
 351 422 405 479 405 548 c 0
 405 616 351 672 284 672 c 2
 270 672 l 1
 244 672 l 1
 147 672 l 1
147 347 m 1
 147 75 l 1
 279 75 l 1
 306 75 l 2
 377 75 438 139 438 212 c 0xf4
 438 286 380 347 306 347 c 2
 284 347 l 1
 266 347 l 1
 147 347 l 1
EndSplineSet
Validated: 1
EndChar

StartChar: C
Encoding: 67 67 29
Width: 695
VWidth: 950
Flags: W
HStem: -15 75<308.687 531.232> 690 75<308.687 531.232>
VStem: 30 80<262.498 487.502>
LayerCount: 2
Fore
SplineSet
412 765 m 0
 501.7890625 765 591.338867188 733.219726562 655.99609375 680.330078125 c 1
 655.99609375 575 l 1
 602.779296875 647.858398438 510.432617188 690 412 690 c 0
 245.870117188 690 110 541.129882812 110 375 c 0
 110 208.870117188 245.870117188 60 412 60 c 0
 510.432617188 60 602.779296875 102.000976562 655.99609375 174.859375 c 1
 655.99609375 69.669921875 l 1
 591.338867188 16.7802734375 501.7890625 -15 412 -15 c 0
 205.336914062 -15 30 168.336914062 30 375 c 0
 30 581.663085938 205.336914062 765 412 765 c 0
EndSplineSet
Validated: 1
EndChar

StartChar: D
Encoding: 68 68 30
Width: 700
VWidth: 950
Flags: W
HStem: 0 75<139.998 404.491> 675 75<139.998 404.49>
VStem: 60 79.998<75 675> 590 80<264.231 485.765>
LayerCount: 2
Fore
SplineSet
60 750 m 1
 139.998046875 750 l 1
 295.001953125 750 l 1
 295.001953125 749.998046875 l 1
 501.663085938 749.997070312 670 581.66015625 670 374.998046875 c 0
 670 168.334960938 501.662109375 -0.001953125 295 -0.001953125 c 1
 295 0 l 1
 139.998046875 0 l 1
 113.349609375 0 l 1
 60 0 l 1
 60 750 l 1
139.998046875 675 m 1
 139.998046875 75 l 1
 295.001953125 75 l 1
 295.001953125 74.998046875 l 1
 461.129882812 74.9990234375 590 208.869140625 590 374.998046875 c 0
 590 541.127929688 461.12890625 674.998046875 295 674.998046875 c 1
 295 675 l 1
 139.998046875 675 l 1
EndSplineSet
Validated: 1
EndChar

StartChar: E
Encoding: 69 69 31
Width: 500
VWidth: 950
Flags: W
HStem: 0 75<139.998 460.002> 375 75<139.998 460.002> 675 75<139.998 460.002>
VStem: 60 79.998<75 375 450 675>
LayerCount: 2
Fore
SplineSet
60 750 m 5
 139.998046875 750 l 5
 460.001953125 750 l 5
 460.001953125 675 l 5
 139.998046875 675 l 5
 139.998046875 450 l 5
 460.001953125 450 l 5
 460.001953125 375 l 5
 139.998046875 375 l 5
 139.998046875 75 l 5
 460.001953125 75 l 5
 460.001953125 0 l 5
 139.998046875 0 l 5
 60 0 l 5
 60 75 l 5
 60 375 l 5
 60 450 l 5
 60 675 l 5
 60 750 l 5
EndSplineSet
Validated: 1
EndChar

StartChar: F
Encoding: 70 70 32
Width: 500
VWidth: 950
Flags: W
HStem: 0 21G<60 140> 375 75<139.998 460.002> 675 75<139.998 460.002>
VStem: 60 79.998<0 375 450 675>
LayerCount: 2
Fore
SplineSet
60 750 m 1
 139.998046875 750 l 1
 460.001953125 750 l 1
 460.001953125 675 l 1
 139.998046875 675 l 1
 139.998046875 450 l 1
 460.001953125 450 l 1
 460.001953125 375 l 1
 139.998046875 375 l 1
 139.998046875 249.999023438 139.998046875 124.999023438 140 0 c 1
 139.998046875 0 l 1
 60 0 l 1
 60 75 l 1
 60 375 l 1
 60 450 l 1
 60 675 l 1
 60 750 l 1
EndSplineSet
Validated: 1
EndChar

StartChar: G
Encoding: 71 71 33
Width: 800
VWidth: 950
Flags: W
HStem: -15 75<308.687 513.646> 300 75<474.191 680.939> 690 75<308.687 525.887>
VStem: 30 80<262.498 487.502>
LayerCount: 2
Fore
SplineSet
412 765 m 0
 515.331054688 765 617.081054688 722.915039062 684.998046875 654.998046875 c 1
 631.01953125 601.01953125 l 1
 577.950195312 655.999023438 495.709960938 690 412 690 c 0
 245.870117188 690 110 541.129882812 110 375 c 0
 110 208.870117188 245.870117188 60 412 60 c 0
 552.215820312 60 648.888671875 170.364257812 680.939453125 300 c 5
 474.19140625 300 l 5
 474.19140625 375 l 5
 690 375 l 5
 770 375 l 5
 770 166.5703125 618.663085938 -15 412 -15 c 0
 205.336914062 -15 30 168.337890625 30 375 c 0
 30 581.663085938 205.336914062 765 412 765 c 0
EndSplineSet
Validated: 1
EndChar

StartChar: H
Encoding: 72 72 34
Width: 670
VWidth: 950
Flags: W
HStem: 0 21G<60 140 530 610> 347 75<140 530> 730 20G<60 140 530 610>
VStem: 60 80<0 347 422 750> 530 80<0 347 422 750>
LayerCount: 2
Fore
SplineSet
60 750 m 1
 140 750 l 1
 140 422 l 1
 530 422 l 1
 530 750 l 1
 610 750 l 1
 610 422 l 1
 610 347 l 1
 610 0 l 1
 530 0 l 1
 530 347 l 1
 140 347 l 1
 140 0 l 1
 60 0 l 1
 60 347 l 1
 60 422 l 1
 60 750 l 1
EndSplineSet
Validated: 1
EndChar

StartChar: I
Encoding: 73 73 35
Width: 200
VWidth: 950
Flags: W
HStem: 0 21G<60 140> 730 20G<60 140>
VStem: 60 80<0 750>
LayerCount: 2
Fore
SplineSet
140 750 m 5
 140 0 l 5
 60 0 l 5
 60 750 l 5
 140 750 l 5
EndSplineSet
Validated: 1
EndChar

StartChar: J
Encoding: 74 74 36
Width: 428
VWidth: 950
Flags: W
HStem: 0 74.998<105.888 243.977> 730 20G<303.625 383.629>
VStem: 303.625 80.0039<136.115 750>
LayerCount: 2
Fore
SplineSet
303.625 750 m 1
 383.62890625 750 l 1
 383.62890625 207.150390625 l 2
 383.62890625 93.21875 290.41015625 0 176.478515625 0 c 0
 121.5546875 0 68.8369140625 21.8349609375 30 60.671875 c 1
 80.568359375 116.240234375 l 1
 104.424804688 92.3837890625 142.741210938 74.998046875 176.478515625 74.998046875 c 0
 247.17578125 74.998046875 303.625 136.453125 303.625 207.150390625 c 2
 303.625 750 l 1
EndSplineSet
Validated: 1
EndChar

StartChar: K
Encoding: 75 75 37
Width: 603
VWidth: 950
Flags: W
HStem: 0 21G<60 139.998 437.54 563.457> 730 20G<60 139.998 437.536 563.453>
VStem: 60 79.998<0.00195312 333.086 416.918 750>
LayerCount: 2
Fore
SplineSet
60 750 m 1
 139.998046875 750 l 1
 139.998046875 416.91796875 l 1
 456.54296875 750 l 1
 563.453125 750 l 1
 538.087890625 723.30859375 l 1
 207.076171875 375.001953125 l 1
 538.087890625 26.6953125 l 1
 563.45703125 0 l 1
 456.546875 0 l 1
 139.998046875 333.0859375 l 1
 139.998046875 0.001953125 l 1
 60 0.001953125 l 1
 60 750 l 1
EndSplineSet
Validated: 1
EndChar

StartChar: L
Encoding: 76 76 38
Width: 490
VWidth: 950
Flags: W
HStem: 0 75<139.998 460.002> 730 20G<60 139.998>
VStem: 60 79.998<75 750>
LayerCount: 2
Fore
SplineSet
60 750 m 1
 139.998046875 750 l 1
 139.998046875 75 l 1
 460.001953125 75 l 1
 460.001953125 0 l 1
 139.998046875 0 l 1
 60 0 l 1
 60 75 l 1
 60 750 l 1
EndSplineSet
Validated: 1
EndChar

StartChar: M
Encoding: 77 77 39
Width: 938
VWidth: 950
Flags: W
HStem: 0 21G<50 132.125 806.535 888.656> 730 20G<176.535 267.621 671.041 762.125>
LayerCount: 2
Fore
SplineSet
180.001953125 750 m 1
 260.478515625 750 l 1
 469.330078125 165.216796875 l 1
 678.18359375 750 l 1
 758.658203125 750 l 1
 887.5078125 6.6171875 l 1
 888.65625 0 l 1
 810.001953125 0 l 1
 706.296875 598.2890625 l 1
 505.818359375 36.962890625 l 1
 432.833984375 36.962890625 l 1
 232.357421875 598.2890625 l 1
 128.658203125 0 l 1
 50 0 l 1
 51.146484375 6.6171875 l 1
 180.001953125 750 l 1
EndSplineSet
Validated: 1
EndChar

StartChar: N
Encoding: 78 78 40
Width: 800
VWidth: 950
Flags: W
HStem: 0 21G<60 140 634.013 740> 730 20G<60 165.987 660 740>
VStem: 60 80<0 638> 660 80<112 750>
LayerCount: 2
Fore
SplineSet
60 750 m 1
 150 750 l 1
 660 112 l 1
 660 750 l 1
 740 750 l 1
 740 0 l 1
 700 0 l 1
 650 0 l 1
 140 638 l 1
 140 0 l 1
 60 0 l 1
 60 750 l 1
EndSplineSet
Validated: 1
EndChar

StartChar: P
Encoding: 80 80 41
Width: 508
VWidth: 950
Flags: W
HStem: 0 21G<60 139.998> 347.498 75<139.998 344.039> 672.496 77.5039<139.998 341.758>
VStem: 60 79.998<0 347.498 422.498 672.496> 398.119 79.998<477.454 616.968>
LayerCount: 2
Fore
SplineSet
60 750 m 1
 112.03515625 750 l 1
 139.998046875 750 l 1
 237.498046875 750 l 1
 263.142578125 750 l 1
 277.5 750 l 2
 388.077148438 750 478.1171875 658.61328125 478.1171875 547.5 c 0
 478.1171875 486.603515625 451.069335938 431.635742188 408.419921875 394.38671875 c 0
 365.415039062 359.515625 325.5078125 349.806640625 252.884765625 347.498046875 c 2
 139.998046875 347.498046875 l 1
 139.998046875 74.998046875 l 1
 139.998046875 0 l 1
 60 0 l 1
 60 750 l 1
139.998046875 672.49609375 m 1
 139.998046875 422.498046875 l 1
 258.8828125 422.498046875 l 1
 277.5 422.498046875 l 2
 344.3359375 422.498046875 398.119140625 479.12109375 398.119140625 547.5 c 0
 398.119140625 615.87890625 344.3359375 672.49609375 277.5 672.49609375 c 2
 263.142578125 672.49609375 l 1
 237.498046875 672.49609375 l 1
 139.998046875 672.49609375 l 1
EndSplineSet
Validated: 1
EndChar

StartChar: Q
Encoding: 81 81 42
Width: 868
VWidth: 950
Flags: W
HStem: -15 75<308.687 507.573> 0 21G<719.199 848.799> 690 75<308.687 515.313>
VStem: 30 80<262.498 487.502> 714 80<261.672 487.502>
LayerCount: 2
Fore
SplineSet
412 765 m 0xb8
 618.662109375 765 794 581.663085938 794 375 c 0
 794 285.583984375 762.483398438 203.346679688 709.98828125 138.810546875 c 1
 848.798828125 0 l 1
 739.19921875 0 l 1x78
 655.1875 84.01171875 l 1
 590.651367188 31.517578125 501.415039062 -15 412 -15 c 0
 205.336914062 -15 30 168.336914062 30 375 c 0
 30 581.663085938 205.336914062 765 412 765 c 0xb8
412 690 m 0
 245.870117188 690 110 541.129882812 110 375 c 0
 110 208.870117188 245.870117188 60 412 60 c 0xb8
 481.53125 60 551.526367188 98.4609375 601.287109375 137.912109375 c 1
 479.853515625 259.345703125 l 1
 589.453125 259.345703125 l 1
 655.1171875 193.681640625 l 1
 692.247070312 243.990234375 714 306.768554688 714 375 c 0
 714 541.129882812 578.129882812 690 412 690 c 0
EndSplineSet
Validated: 1
EndChar

StartChar: R
Encoding: 82 82 43
Width: 528
VWidth: 950
Flags: W
HStem: 0 21G<60 140 413.11 528> 347 75<140 152 251 344.013> 672 78<140 341.969>
VStem: 60 80<0 347 422 672> 398 80<477.588 617.173>
LayerCount: 2
Fore
SplineSet
60 750 m 1
 112 750 l 1
 140 750 l 1
 237 750 l 1
 263 750 l 1
 278 750 l 2
 388 750 478 659 478 548 c 0
 478 487 451 432 408 394 c 0
 365 360 326 350 253 347 c 2
 251 347 l 1
 508 24 l 1
 528 0 l 1
 429 0 l 1
 170 326 l 1
 152 347 l 1
 140 347 l 1
 140 75 l 1
 140 0 l 1
 60 0 l 1
 60 750 l 1
140 672 m 1
 140 422 l 1
 259 422 l 1
 278 422 l 2
 344 422 398 479 398 548 c 0
 398 616 344 672 278 672 c 2
 263 672 l 1
 237 672 l 1
 140 672 l 1
EndSplineSet
Validated: 1
EndChar

StartChar: S
Encoding: 83 83 44
Width: 528
VWidth: 950
Flags: W
HStem: -15 75<183.337 342.198> 692 73<190.553 326.333>
VStem: 63 88<512.161 652.939> 400 88<119.057 279.671>
LayerCount: 2
Fore
SplineSet
264 765 m 0
 307 765 344 756 376 738 c 2
 407 719 432 692 450 657 c 2
 450 656 l 1
 378 610 l 1
 377 611 l 2
 362 638 344 659 324 672 c 2
 305 685 283 692 258 692 c 0
 227 692 201 682 181 663 c 0
 161 644 151 604 151 575 c 0
 151 549 159 528 174 510 c 0
 189 491 213 475 246 461 c 2
 347 416 l 2
 394 396 429 370 452 337 c 2
 476 304 488 265 488 220 c 0
 488 154 467 86 425 45 c 0
 383 5 328 -15 259 -15 c 0
 203 -15 156 -1 117 28 c 1
 79 57 54 113 40 166 c 2
 40 167 l 1
 119 206 l 1
 119 205 l 2
 130 162 147 114 170 92 c 0
 194 70 223 60 259 60 c 0
 301 60 335 72 361 96 c 0
 387 120 400 167 400 206 c 0
 400 237 391 264 373 288 c 2
 355 311 327 331 291 347 c 2
 204 384 l 2
 157 404 121 430 98 461 c 2
 75 492 63 530 63 574 c 0
 63 624 82 682 120 715 c 0
 158 748 206 765 264 765 c 0
EndSplineSet
Validated: 1
EndChar

StartChar: T
Encoding: 84 84 45
Width: 585
VWidth: 950
Flags: W
HStem: 0 21G<252.498 332.502> 675 75<30 252.498 332.502 555>
VStem: 252.498 80.0039<0 675>
LayerCount: 2
Fore
SplineSet
30 750 m 1
 252.498046875 750 l 1
 332.501953125 750 l 1
 555 750 l 1
 555 675 l 1
 332.501953125 675 l 1
 332.501953125 0 l 1
 252.498046875 0 l 1
 252.498046875 675 l 1
 30 675 l 1
 30 750 l 1
EndSplineSet
Validated: 1
EndChar

StartChar: U
Encoding: 85 85 46
Width: 696
VWidth: 950
Flags: W
HStem: -15 74.998<236.091 459.926> 730 20G<60 139.998 556.004 636.002>
VStem: 60 79.998<162.389 750> 556.002 79.998<162.389 750>
LayerCount: 2
Fore
SplineSet
60 750 m 5
 139.998046875 750 l 5
 139.998046875 247.498046875 l 5
 140 247.498046875 l 5
 140 153.135742188 215.637695312 59.998046875 310 59.998046875 c 6
 385.99609375 59.998046875 l 6
 480.404296875 59.998046875 556.001953125 153.133789062 556.001953125 247.49609375 c 6
 556.00390625 750 l 5
 636.001953125 750 l 5
 636 249.99609375 l 6
 635.999023438 112.3984375 523.59375 -15 385.99609375 -15 c 6
 310 -15 l 5
 310 -15.001953125 l 5
 172.403320312 -15.001953125 60.0009765625 112.399414062 60 249.99609375 c 6
 60 249.998046875 l 5
 60 750 l 5
EndSplineSet
Validated: 1
EndChar

StartChar: V
Encoding: 86 86 47
Width: 753
VWidth: 950
Flags: W
HStem: 0 21G<330.947 422.682> 730 20G<35 126.737 626.892 718.629>
LayerCount: 2
Fore
SplineSet
35 750 m 1
 118.62890625 750 l 1
 376.814453125 113.14453125 l 1
 635 750 l 1
 718.62890625 750 l 1
 712.7265625 735.4375 l 1
 414.57421875 0 l 1
 339.0546875 0 l 1
 40.90234375 735.4375 l 1
 35 750 l 1
EndSplineSet
Validated: 1
EndChar

StartChar: W
Encoding: 87 87 48
Width: 1050
VWidth: 950
Flags: W
HStem: 0 21G<253.998 347.466 703.454 796.914> 730 20G<35 121.912 929 1015.92>
LayerCount: 2
Fore
SplineSet
35 750 m 1
 115.912109375 750 l 1
 301.50390625 131.36328125 l 1
 488.525390625 720.50390625 l 1
 562.39453125 720.50390625 l 1
 749.416015625 131.37890625 l 1
 935 750 l 1
 1015.91601562 750 l 1
 1012.57226562 738.86328125 l 1
 790.9140625 0 l 1
 709.802734375 0 l 1
 525.46484375 580.70703125 l 1
 341.1171875 0 l 1
 259.998046875 0 l 1
 38.33984375 738.86328125 l 1
 35 750 l 1
EndSplineSet
Validated: 1
EndChar

StartChar: X
Encoding: 88 88 49
Width: 673
VWidth: 950
Flags: W
HStem: 0 21G<40 146.482 526.672 633.146> 730 20G<40 146.478 526.676 633.146>
LayerCount: 2
Fore
SplineSet
40 750 m 5
 133.14453125 750 l 5
 336.576171875 444.853515625 l 5
 540.009765625 750 l 5
 633.146484375 750 l 5
 618.81640625 728.505859375 l 5
 383.14453125 374.998046875 l 5
 618.81640625 21.490234375 l 5
 633.146484375 0 l 5
 540.005859375 0 l 5
 336.576171875 305.142578125 l 5
 133.1484375 0 l 5
 40 0 l 5
 54.330078125 21.490234375 l 5
 290.00390625 374.998046875 l 5
 54.330078125 728.505859375 l 5
 40 750 l 5
EndSplineSet
Validated: 1
EndChar

StartChar: Y
Encoding: 89 89 50
Width: 663
VWidth: 950
Flags: W
HStem: 0 21G<291.574 371.574> 730 20G<35 141.478 521.676 628.146>
VStem: 291.574 80<0 365.143>
LayerCount: 2
Fore
SplineSet
35 750 m 1
 128.14453125 750 l 1
 331.576171875 444.853515625 l 1
 535.009765625 750 l 1
 628.146484375 750 l 1
 613.81640625 728.505859375 l 1
 371.57421875 365.142578125 l 1
 371.57421875 0 l 1
 291.57421875 0 l 1
 291.57421875 365.142578125 l 1
 49.330078125 728.505859375 l 1
 35 750 l 1
EndSplineSet
Validated: 1
EndChar

StartChar: Z
Encoding: 90 90 51
Width: 660
VWidth: 950
Flags: W
HStem: 0 79.998<150.859 620> 669.996 80.002<40 509.152>
LayerCount: 2
Fore
SplineSet
40 750 m 1
 65 750 l 1
 65 749.998046875 l 1
 620.001953125 749.998046875 l 1
 620.001953125 686.65234375 l 1
 150.859375 79.998046875 l 1
 620 79.998046875 l 1
 620 0 l 1
 88.994140625 0 l 1
 40 0 l 1
 40 63.333984375 l 1
 509.15234375 669.99609375 l 1
 40 669.99609375 l 1
 40 750 l 1
EndSplineSet
Validated: 1
EndChar

StartChar: zero
Encoding: 48 48 53
Width: 610
VWidth: 950
Flags: W
HStem: -14 74<224.382 385.618> 690 75<224.382 385.618>
VStem: 55 80<152.759 596.048> 475 80<154.952 595.155>
LayerCount: 2
Fore
SplineSet
305 765 m 1
 443 765 555 653 555 515 c 2
 555 238 l 1
 555 235 l 1
 555 97 443 -14 305 -14 c 0
 167 -14 55 98 55 236 c 2
 55 237 l 1
 55 516 l 2
 55 654 167 765 305 765 c 1
305 690 m 2
 211 690 135 609 135 515 c 2
 135 236 l 1
 135 235 l 1
 135 141 211 60 305 60 c 0
 399 60 475 141 475 235 c 2
 475 236 l 1
 475 515 l 2
 475 609 399 690 305 690 c 2
EndSplineSet
Validated: 1
EndChar

StartChar: one
Encoding: 49 49 54
Width: 199
VWidth: 950
Flags: W
HStem: 0 21G<60 139.998> 730 20G<60 139.998>
VStem: 60 79.998<0 750>
LayerCount: 2
Fore
SplineSet
60 750 m 1
 139.998046875 750 l 1
 139.998046875 0 l 1
 60 0 l 1
 60 750 l 1
EndSplineSet
Validated: 1
EndChar

StartChar: two
Encoding: 50 50 55
Width: 555
VWidth: 950
Flags: W
HStem: 0 75<210 515> 690 75<200.432 354.973>
VStem: 40 80<528 607.539> 435 80<448.02 608.335>
LayerCount: 2
Fore
SplineSet
278 765 m 0
 408 765 515 658 515 528 c 0
 515 472 496 421 461 378 c 2
 210 75 l 1
 515 75 l 1
 515 0 l 1
 157 0 l 1
 139 0 l 1
 67 0 l 1
 40 0 l 1
 110 80 l 1
 396 423 l 5
 399 427 l 1
 422 455 435 491 435 528 c 0
 435 615 365 690 278 690 c 0
 190 690 120 615 120 528 c 1
 40 528 l 1
 40 658 147 765 278 765 c 0
EndSplineSet
Validated: 1
EndChar

StartChar: three
Encoding: 51 51 56
Width: 541
VWidth: 950
Flags: W
HStem: -15 75<195.943 335.673> 338 74<216 337.155> 690 75<197.461 334.166>
VStem: 40 80<133.567 200 549 616.13> 411 80<133.222 266.474 483.332 616.373>
CounterMasks: 1 e0
LayerCount: 2
Fore
SplineSet
266 765 m 0
 380 765 491 664 491 549 c 0
 491 481 458 413 406 375 c 1
 458 337 491 269 491 200 c 0
 491 86 380 -15 266 -15 c 0
 151 -15 40 86 40 200 c 1
 120 200 l 1
 120 130 195 60 266 60 c 0
 337 60 411 130 411 200 c 0
 411 271 337 338 266 338 c 2
 257 338 l 1
 248 338 l 1
 216 338 l 1
 216 412 l 1
 256 412 l 1
 262 412 l 5
 262 412 266 412 266 412 c 0
 337 413 411 479 411 549 c 0
 411 620 337 690 266 690 c 0
 195 690 120 620 120 549 c 1
 40 549 l 1
 40 664 151 765 266 765 c 0
EndSplineSet
Validated: 1
EndChar

StartChar: four
Encoding: 52 52 57
Width: 589
VWidth: 950
Flags: W
HStem: 0 21G<450 530> 249 85<204.623 450> 730 20G<73.5507 155 450 530>
VStem: 54 81<401.717 566> 450 80<0 249 334 750>
LayerCount: 2
Fore
SplineSet
75 750 m 1
 155 750 l 1
 135 474 l 2
 135 393 199 334 280 334 c 2
 450 334 l 1
 450 750 l 1
 530 750 l 1
 530 0 l 1
 450 0 l 1
 450 249 l 1
 280 249 l 2
 161 249 54 342 54 460 c 0
 54 464 55 469 55 474 c 2
 75 750 l 1
EndSplineSet
Validated: 1
EndChar

StartChar: underscore
Encoding: 95 95 58
Width: 560
VWidth: 950
Flags: W
HStem: -75 75<30 530>
LayerCount: 2
Fore
SplineSet
30 0 m 1
 530 0 l 1
 530 -75 l 1
 30 -75 l 1
 30 0 l 1
EndSplineSet
Validated: 1
EndChar

StartChar: five
Encoding: 53 53 59
Width: 557
VWidth: 950
Flags: W
HStem: -15 75<162.177 320.215> 425 75<177.077 328.693> 675 75<136 455>
VStem: 56 80<471 675> 423 80<162.395 325.384>
LayerCount: 2
Fore
SplineSet
56 750 m 1
 455 750 l 1
 455 675 l 1
 136 675 l 1
 136 471 l 1
 171 490 211 500 253 500 c 0
 390 500 503 381 503 243 c 0
 503 105 380 -15 243 -15 c 0
 174 -15 102 13 55 63 c 1
 113 118 l 1
 145 84 196 60 243 60 c 0
 337 60 423 149 423 243 c 0
 423 337 347 425 253 425 c 0
 209 425 167 403 136 373 c 1
 56 373 l 1
 56 675 l 1
 56 750 l 1
EndSplineSet
Validated: 1
EndChar

StartChar: six
Encoding: 54 54 60
Width: 525
VWidth: 950
Flags: W
HStem: -15 75<190.852 334.979> 373 75<228.982 334.979> 730 20G<324.615 367.767>
VStem: 30 80<142.384 292.314> 415 80<142.384 290.211>
LayerCount: 2
Fore
SplineSet
338 750 m 1
 402 707 l 1
 228 447 l 1
 237 448 254 448 263 448 c 0
 387 448 495 340 495 216 c 0
 495 93 387 -15 263 -15 c 0
 139 -15 30 93 30 216 c 0
 30 254 38 295 55 327 c 1
 56 329 l 1
 57 331 l 2
 64 344 72 354 81 366 c 2
 338 750 l 1
263 373 m 0
 182 373 110 297 110 216 c 0
 110 136 182 60 263 60 c 0
 344 60 415 136 415 216 c 0
 415 297 344 373 263 373 c 0
EndSplineSet
Validated: 1
EndChar

StartChar: seven
Encoding: 55 55 61
Width: 616
VWidth: 950
Flags: W
HStem: -0.0078125 21G<74.0683 118.054> 675 75<40.0586 446.539 538.637 538.639>
LayerCount: 2
Fore
SplineSet
40.05859375 750 m 1
 77.55859375 750 l 1
 326.91015625 750 l 1
 494.697265625 750 l 1
 524.4765625 750 l 1
 586.796875 750 l 1
 538.638671875 675 l 1
 538.63671875 675 l 1
 409.779296875 474.318359375 l 1
 249.94921875 225.40625 l 1
 229.013671875 192.80078125 l 1
 229.015625 192.798828125 l 1
 126.154296875 32.60546875 l 1
 105.2109375 -0.0078125 l 1
 40 41.87109375 l 1
 60.935546875 74.4765625 l 1
 446.5390625 675 l 1
 77.55859375 675 l 1
 40.05859375 675 l 1
 40.05859375 750 l 1
EndSplineSet
Validated: 1
EndChar

StartChar: eight
Encoding: 56 56 62
Width: 525
VWidth: 950
Flags: W
HStem: -15 75<192.711 331.469> 352 75<195.832 328.4> 690 75<197.411 326.779>
VStem: 40 80<133.82 281.142> 55 80<489.029 626.197> 390 80<489.029 626.197> 405 80<136.362 279.532>
LayerCount: 2
Fore
SplineSet
262 765 m 0xe8
 372 765 470 667 470 557 c 0xec
 470 493 439 428 392 392 c 1
 448 353 485 281 485 208 c 0
 485 90 380 -15 262 -15 c 0
 144 -15 40 90 40 208 c 0xf2
 40 281 77 353 133 392 c 1
 86 428 55 493 55 557 c 0
 55 667 152 765 262 765 c 0xe8
262 690 m 0
 195 690 135 624 135 557 c 0
 135 490 195 427 262 427 c 0
 329 427 390 490 390 557 c 0
 390 624 329 690 262 690 c 0
262 352 m 0
 187 352 120 283 120 208 c 0
 120 133 187 60 262 60 c 0
 337 60 405 133 405 208 c 0xf2
 405 283 337 352 262 352 c 0
EndSplineSet
Validated: 1
EndChar

StartChar: nine
Encoding: 57 57 63
Width: 525
VWidth: 950
Flags: W
HStem: -2 21G<157.909 200.351> 300 75<190.852 296.491> 690 75<190.852 334.979>
VStem: 30 80<457.789 606.391> 415 80<455.838 606.391>
LayerCount: 2
Fore
SplineSet
187 -2 m 1
 123 42 l 1
 297 302 l 1
 288 301 272 300 263 300 c 0
 139 300 30 408 30 532 c 0
 30 656 139 765 263 765 c 0
 387 765 495 656 495 532 c 0
 495 494 487 453 470 422 c 1
 469 420 l 1
 468 418 l 2
 461 404 453 394 444 383 c 2
 187 -2 l 1
263 375 m 0
 344 375 415 451 415 532 c 0
 415 613 344 690 263 690 c 0
 182 690 110 613 110 532 c 0
 110 451 182 375 263 375 c 0
EndSplineSet
Validated: 1
EndChar

StartChar: question
Encoding: 63 63 65
Width: 510
VWidth: 950
Flags: W
HStem: 0 110<211.113 297.652> 675 75<182.817 327.183>
VStem: 30 80<525 601.764> 199.383 110<11.7306 98.2694> 214.385 79.998<186.121 266.223> 400 80<444.9 601.764>
LayerCount: 2
Fore
SplineSet
255 750 m 0xec
 378.790039062 750 480 648.790039062 480 525 c 0
 479.999023438 465.342773438 454.286132812 410.084960938 412.1015625 367.900390625 c 2
 334.849609375 290.65625 l 2
 307.645507812 263.452148438 294.3828125 224.592773438 294.3828125 186.12109375 c 1
 214.384765625 186.12109375 l 1
 214.384765625 245.780273438 240.09765625 301.040039062 282.283203125 343.224609375 c 2
 359.52734375 420.46875 l 2
 386.73046875 447.671875 400.000976562 486.529296875 400.001953125 525 c 1
 400 525 l 1
 400 605.5546875 335.5546875 675 255 675 c 0
 174.4453125 675 110 605.5546875 110 525 c 1
 30 525 l 1
 30 648.790039062 131.209960938 750 255 750 c 0xec
254.3828125 110 m 0
 284.758789062 110 309.3828125 85.3759765625 309.3828125 55 c 0
 309.3828125 24.6240234375 284.758789062 0 254.3828125 0 c 0
 224.006835938 0 199.3828125 24.6240234375 199.3828125 55 c 0xf4
 199.3828125 85.3759765625 224.006835938 110 254.3828125 110 c 0
EndSplineSet
Validated: 1
EndChar

StartChar: exclam
Encoding: 33 33 66
Width: 230
VWidth: 950
Flags: W
HStem: -0.00195312 110<71.737 158.263> 730 20G<75.002 155>
VStem: 60 110<11.735 98.2611> 75.002 79.998<186.119 750>
LayerCount: 2
Fore
SplineSet
75.001953125 750 m 1xd0
 155 750 l 1
 155 186.119140625 l 1
 75.001953125 186.119140625 l 1
 75.001953125 750 l 1xd0
115 109.998046875 m 0
 145.35546875 109.998046875 170 85.353515625 170 54.998046875 c 0
 170 24.642578125 145.35546875 -0.001953125 115 -0.001953125 c 0
 84.64453125 -0.001953125 60 24.642578125 60 54.998046875 c 0xe0
 60 85.353515625 84.64453125 109.998046875 115 109.998046875 c 0
EndSplineSet
Validated: 1
EndChar

StartChar: quotedbl
Encoding: 34 34 67
Width: 280
VWidth: 950
Flags: W
HStem: 499.998 250.002<30 100.002 180 250.002>
VStem: 30 70.002<499.998 750> 180 70.002<499.998 750>
LayerCount: 2
Fore
SplineSet
30 750 m 1
 100.001953125 750 l 1
 100.001953125 499.998046875 l 1
 30 499.998046875 l 1
 30 750 l 1
180 750 m 1
 250.001953125 750 l 1
 250.001953125 499.998046875 l 1
 180 499.998046875 l 1
 180 750 l 1
EndSplineSet
Validated: 1
EndChar

StartChar: numbersign
Encoding: 35 35 68
Width: 828
VWidth: 950
Flags: W
HStem: 0 21G<93.9941 186.004 349.996 442> 212.498 75<70 178.992 293.002 434.996 548.998 658.992> 462.5 75<170.002 278.992 393.004 534.996 649 758.992> 730 20G<385.992 478.004 649.791 734.006>
LayerCount: 2
Fore
SplineSet
393.9921875 750 m 1
 478.00390625 750 l 1
 472.2109375 735.51953125 l 1
 393.00390625 537.5 l 1
 564.99609375 537.5 l 1
 649.791015625 749.486328125 l 1
 649.99609375 750 l 1
 734.005859375 750 l 1
 722.20703125 720.51953125 l 1
 649 537.5 l 1
 788.9921875 537.5 l 1
 758.9921875 462.5 l 1
 619 462.5 l 1
 548.998046875 287.498046875 l 1
 688.9921875 287.498046875 l 1
 658.9921875 212.498046875 l 1
 518.998046875 212.498046875 l 1
 434 0 l 1
 349.99609375 0 l 1
 434.99609375 212.498046875 l 1
 263.001953125 212.498046875 l 1
 178.00390625 0 l 1
 93.994140625 0 l 1
 99.787109375 14.486328125 l 1
 178.9921875 212.498046875 l 1
 40 212.498046875 l 1
 70 287.498046875 l 1
 208.9921875 287.498046875 l 1
 278.9921875 462.5 l 1
 140.001953125 462.5 l 1
 170.001953125 537.5 l 1
 308.9921875 537.5 l 1
 393.9921875 750 l 1
363.00390625 462.5 m 1
 293.001953125 287.498046875 l 1
 464.99609375 287.498046875 l 1
 534.99609375 462.5 l 1
 363.00390625 462.5 l 1
EndSplineSet
Validated: 1
EndChar

StartChar: backslash
Encoding: 92 92 69
Width: 573
VWidth: 950
Flags: W
LayerCount: 2
Fore
SplineSet
458 -50 m 1
 36 781 l 1
 25 800 l 1
 115 800 l 1
 537 -31 l 1
 548 -50 l 1
 458 -50 l 1
EndSplineSet
Validated: 1
EndChar

StartChar: dollar
Encoding: 36 36 70
Width: 525
VWidth: 950
Flags: W
HStem: 3.70703 73.4102<178.443 227.592>
VStem: 62.8281 85.4863<511.9 640.215> 227.592 70.002<-48.9941 6.46064 78.4004 345.609 468.395 672.221 743.809 801> 399.912 85.4863<131.958 281.579>
LayerCount: 2
Fore
SplineSet
227.591796875 801 m 1
 297.59375 801 l 1
 297.59375 747.6015625 l 1
 325.970703125 743.930664062 351.333007812 735.563476562 373.68359375 722.5 c 0
 405.092773438 704.33203125 429.541992188 677.56640625 447.02734375 642.203125 c 1
 377.083984375 597.4296875 l 1
 361.217773438 625.006835938 343.408203125 645.446289062 323.65625 658.748046875 c 0
 315.420898438 664.428710938 306.729492188 668.908203125 297.59375 672.220703125 c 1
 297.59375 437.04296875 l 1
 345.513671875 415.908203125 l 2
 391.818359375 396.1171875 426.626953125 369.837890625 449.94140625 337.0703125 c 0
 473.579101562 304.302734375 485.3984375 265.532226562 485.3984375 220.759765625 c 0
 485.3984375 155.223632812 464.51171875 102.341796875 422.740234375 62.111328125 c 0
 389.680664062 30.28125 347.958984375 11.16015625 297.59375 4.71875 c 1
 297.59375 -48.994140625 l 1
 227.591796875 -48.994140625 l 1
 227.591796875 3.70703125 l 1
 184.606445312 7.9951171875 147.654296875 21.7822265625 116.7421875 45.078125 c 0
 78.8564453125 73.953125 53.2763671875 114.83203125 40 167.71484375 c 1
 116.7421875 205.673828125 l 1
 127.104492188 162.5234375 144.104492188 129.754882812 167.7421875 107.369140625 c 0
 184.693359375 91.7626953125 204.645507812 81.68359375 227.591796875 77.1171875 c 1
 227.591796875 375.787109375 l 1
 203.19921875 386.22265625 l 2
 155.922851562 406.013671875 120.62890625 431.481445312 97.314453125 462.626953125 c 0
 74.32421875 493.772460938 62.828125 531.083984375 62.828125 574.55859375 c 0
 62.828125 625.170898438 81.6103515625 667.022460938 119.171875 700.115234375 c 0
 148.84375 726.256835938 184.987304688 742.063476562 227.591796875 747.5546875 c 1
 227.591796875 801 l 1
227.591796875 676.12109375 m 1
 208.614257812 671.859375 192.22265625 663.15234375 178.427734375 649.98828125 c 0
 158.3515625 630.522460938 148.314453125 605.704101562 148.314453125 575.53125 c 0
 148.314453125 550.225585938 156.0859375 528.325195312 171.62890625 509.83203125 c 0
 184.444335938 494.583984375 203.108398438 480.775390625 227.591796875 468.39453125 c 1
 227.591796875 676.12109375 l 1
297.59375 345.609375 m 1
 297.59375 78.400390625 l 1
 322.155273438 83.828125 343.150390625 94.6162109375 360.5703125 110.77734375 c 0
 386.798828125 135.434570312 399.912109375 167.389648438 399.912109375 206.646484375 c 0
 399.912109375 238.44140625 390.68359375 266.01953125 372.2265625 289.37890625 c 0
 355.420898438 311.329101562 330.532226562 330.068359375 297.59375 345.609375 c 1
EndSplineSet
Validated: 1
EndChar

StartChar: percent
Encoding: 37 37 71
Width: 670
VWidth: 950
Flags: W
HStem: -0.828125 74.998<435.855 529.853> 219.172 75.2324<435.855 529.853> 454.76 75.0059<140.617 234.614> 675.002 74.998<140.617 234.614>
VStem: 40 79.998<550.623 654.142> 255.234 79.9961<550.623 654.142> 335.23 80.0059<95.0283 198.483> 550.473 79.998<95.0283 198.483>
LayerCount: 2
Fore
SplineSet
187.615234375 750 m 0xfd
 268.668945312 750 335.23046875 683.436523438 335.23046875 602.3828125 c 0
 335.23046875 521.329101562 268.668945312 454.759765625 187.615234375 454.759765625 c 0
 106.561523438 454.759765625 40 521.329101562 40 602.3828125 c 0
 40 683.436523438 106.561523438 750 187.615234375 750 c 0xfd
507.775390625 750 m 5
 574.84765625 711.169921875 l 1
 162.6953125 -0.828125 l 1
 95.623046875 37.994140625 l 1
 507.775390625 750 l 5
187.615234375 675.001953125 m 0
 149.796875 675.001953125 119.998046875 640.201171875 119.998046875 602.3828125 c 0
 119.998046875 564.564453125 149.796875 529.765625 187.615234375 529.765625 c 0
 225.43359375 529.765625 255.234375 564.564453125 255.234375 602.3828125 c 0
 255.234375 640.201171875 225.43359375 675.001953125 187.615234375 675.001953125 c 0
482.853515625 294.404296875 m 0
 563.907226562 294.404296875 630.470703125 227.840820312 630.470703125 146.787109375 c 0
 630.470703125 65.7333984375 563.907226562 -0.828125 482.853515625 -0.828125 c 0
 401.799804688 -0.828125 335.23046875 65.7333984375 335.23046875 146.787109375 c 0xfb
 335.23046875 227.840820312 401.799804688 294.404296875 482.853515625 294.404296875 c 0
482.853515625 219.171875 m 0
 445.03515625 219.171875 415.236328125 184.60546875 415.236328125 146.787109375 c 0
 415.236328125 108.96875 445.03515625 74.169921875 482.853515625 74.169921875 c 0
 520.671875 74.169921875 550.47265625 108.96875 550.47265625 146.787109375 c 0
 550.47265625 184.60546875 520.671875 219.171875 482.853515625 219.171875 c 0
EndSplineSet
Validated: 1
EndChar

StartChar: ampersand
Encoding: 38 38 72
Width: 646
VWidth: 950
Flags: W
HStem: 0.00195312 74.998<182.817 326.187> 675 75<243.182 356.17>
VStem: 30 79.998<148.033 301.317> 124.676 80<513.571 634.981> 394.676 80<514.083 636.32>
LayerCount: 2
Fore
SplineSet
299.67578125 750 m 0
 395.8515625 750 474.67578125 671.17578125 474.67578125 575 c 0
 474.67578125 495.986328125 421.288085938 428.412109375 344.966796875 407.962890625 c 2
 334.08203125 404.470703125 l 1
 487.69140625 250.86328125 l 1
 561.62109375 324.791015625 l 1
 616.423828125 269.994140625 l 1
 542.4921875 196.0625 l 1
 613.125 125.4296875 l 1
 558.328125 70.6328125 l 1
 487.6953125 141.265625 l 1
 413.216796875 66.787109375 l 2
 371.032226562 24.6025390625 314.658203125 0.001953125 255 0.001953125 c 0
 131.209960938 0.001953125 30 101.211914062 30 225.001953125 c 0
 30 324.444335938 95.65234375 410.223632812 190.43359375 438.52734375 c 1
 176.818359375 452.142578125 l 2
 155.176757812 473.78515625 139.1640625 500.303710938 131.2421875 529.8671875 c 0
 127.284179688 544.639648438 124.67578125 559.706054688 124.67578125 575 c 0
 124.67578125 671.17578125 203.5 750 299.67578125 750 c 0
299.67578125 675 m 0
 246.735351562 675 204.67578125 627.940429688 204.67578125 575 c 0
 204.67578125 566.697265625 205.15625 558.267578125 207.3046875 550.248046875 c 0
 211.649414062 534.032226562 219.743164062 518.809570312 231.61328125 506.939453125 c 2
 273.578125 464.9765625 l 1
 324.26171875 481.236328125 l 2
 365.981445312 492.415039062 394.67578125 531.80859375 394.67578125 575 c 0
 394.67578125 627.940429688 352.616210938 675 299.67578125 675 c 0
251.109375 377.8515625 m 1
 217.470703125 367.05859375 l 2
 153.892578125 350.022460938 109.998046875 290.823242188 109.998046875 225.001953125 c 0
 109.998046875 144.447265625 174.4453125 75 255 75 c 0
 293.471679688 75 331.208007812 94.3857421875 358.412109375 121.58984375 c 2
 432.892578125 196.068359375 l 1
 251.109375 377.8515625 l 1
EndSplineSet
Validated: 1
EndChar

StartChar: quotesingle
Encoding: 39 39 73
Width: 130
VWidth: 950
Flags: W
HStem: 499.998 250.002<30 100.002>
VStem: 30 70.002<499.998 750>
LayerCount: 2
Fore
SplineSet
30 750 m 1
 100.001953125 750 l 1
 100.001953125 499.998046875 l 1
 30 499.998046875 l 1
 30 750 l 1
EndSplineSet
Validated: 1
EndChar

StartChar: braceright
Encoding: 125 125 74
Width: 250
VWidth: 950
Flags: W
HStem: -50 75<40 82.6422> 352 75<165.023 210> 725 75<40 82.6422>
VStem: 85 80<25.0847 351.227 427.789 724.915>
LayerCount: 2
Fore
SplineSet
65 800 m 2
 120 800 165 755 165 700 c 2
 165 450 l 2
 165 438 173 427 185 427 c 2
 210 427 l 1
 210 352 l 1
 185 352 l 2
 173 352 165 342 165 330 c 2
 165 50 l 2
 165 -5 120 -50 65 -50 c 2
 40 -50 l 1
 40 25 l 1
 65 25 l 2
 77 25 85 38 85 50 c 2
 85 330 l 2
 85 352 93 373 105 390 c 1
 93 407 85 428 85 450 c 2
 85 700 l 2
 85 711.592144778 76.6013862157 725.050648174 66.1143959475 725.050648174 c 0
 65.7454242146 725.050648174 65.373867287 725.033987935 65 725 c 2
 40 725 l 1
 40 800 l 1
 65 800 l 2
EndSplineSet
Validated: 1
EndChar

StartChar: parenright
Encoding: 41 41 75
Width: 283
VWidth: 950
Flags: W
VStem: 183.925 79.998<224.233 522.819>
LayerCount: 2
Fore
SplineSet
99.3359375 799.35546875 m 1
 206.146484375 671.79296875 263.922851562 524.176757812 263.922851562 373.228515625 c 0
 263.922851562 222.895507812 206.619140625 75.845703125 100.620117188 -51.3701171875 c 1
 41.1591796875 -2.1552734375 l 1
 136.909179688 112.76171875 183.924804688 243.116210938 183.924804688 373.228515625 c 0
 183.924804688 503.874023438 136.505859375 634.743164062 40 750 c 1
 99.3359375 799.35546875 l 1
EndSplineSet
Validated: 1
EndChar

StartChar: parenleft
Encoding: 40 40 76
Width: 293
VWidth: 950
Flags: W
VStem: 30 79.9971<226.389 524.974>
LayerCount: 2
Fore
SplineSet
194.586914062 801.510742188 m 1
 253.922851562 752.155273438 l 1
 157.416992188 636.8984375 109.998046875 506.029296875 109.997070312 375.383789062 c 0
 109.997070312 245.271484375 157.013671875 114.916992188 252.763671875 0 c 1
 193.301757812 -49.21484375 l 1
 87.3037109375 78.0009765625 30 225.05078125 30 375.383789062 c 0
 30 526.33203125 87.7763671875 673.948242188 194.586914062 801.510742188 c 1
EndSplineSet
Validated: 1
EndChar

StartChar: asterisk
Encoding: 42 42 77
Width: 403
VWidth: 950
Flags: W
HStem: 730 20G<171.557 231.557>
VStem: 171.557 60<399.996 523.035 626.961 750>
LayerCount: 2
Fore
SplineSet
171.556640625 750 m 1
 231.556640625 750 l 1
 231.556640625 626.9609375 l 1
 338.107421875 688.48046875 l 1
 368.107421875 636.51953125 l 1
 261.552734375 574.998046875 l 1
 368.107421875 513.4765625 l 1
 338.107421875 461.515625 l 1
 231.556640625 523.03515625 l 1
 231.556640625 399.99609375 l 1
 171.556640625 399.99609375 l 1
 171.556640625 523.037109375 l 1
 65 461.515625 l 1
 35 513.4765625 l 1
 141.5546875 574.998046875 l 1
 35 636.51953125 l 1
 65 688.48046875 l 1
 171.556640625 626.958984375 l 1
 171.556640625 750 l 1
EndSplineSet
Validated: 1
EndChar

StartChar: plus
Encoding: 43 43 78
Width: 530
VWidth: 950
Flags: W
HStem: 340 70<40 228 302 490>
VStem: 228 74<150 340 410 600>
LayerCount: 2
Fore
SplineSet
228 600 m 1
 302 600 l 1
 302 410 l 1
 490 410 l 1
 490 340 l 1
 302 340 l 1
 302 150 l 1
 228 150 l 1
 228 340 l 1
 40 340 l 1
 40 410 l 1
 228 410 l 1
 228 600 l 1
EndSplineSet
Validated: 1
EndChar

StartChar: hyphen
Encoding: 45 45 79
Width: 380
VWidth: 950
Flags: W
HStem: 340 70<40 340>
VStem: 40 300<340 410>
LayerCount: 2
Fore
SplineSet
40 410 m 1
 340 410 l 1
 340 340 l 1
 40 340 l 1
 40 410 l 1
EndSplineSet
Validated: 1
EndChar

StartChar: slash
Encoding: 47 47 80
Width: 573
VWidth: 950
Flags: W
LayerCount: 2
Fore
SplineSet
458 800 m 1
 548 800 l 1
 537 781 l 1
 115 -50 l 1
 25 -50 l 1
 36 -31 l 1
 458 800 l 1
EndSplineSet
Validated: 1
EndChar

StartChar: comma
Encoding: 44 44 81
Width: 243
VWidth: 950
Flags: W
HStem: -171.645 301.645
VStem: 30 183.452
LayerCount: 2
Fore
SplineSet
127.14453125 130 m 1
 213.452148438 99.8623046875 l 1
 88.923828125 -171.64453125 l 1
 30 -147.952148438 l 1
 127.14453125 130 l 1
EndSplineSet
Validated: 1
EndChar

StartChar: period
Encoding: 46 46 82
Width: 170
VWidth: 950
Flags: W
HStem: 0 110<41.737 128.263>
VStem: 30 110<11.737 98.263>
LayerCount: 2
Fore
SplineSet
85 110 m 0
 115.35546875 110 140 85.35546875 140 55 c 0
 140 24.64453125 115.35546875 0 85 0 c 0
 54.64453125 0 30 24.64453125 30 55 c 0
 30 85.35546875 54.64453125 110 85 110 c 0
EndSplineSet
Validated: 1
EndChar

StartChar: semicolon
Encoding: 59 59 83
Width: 255
VWidth: 950
Flags: W
HStem: 340 110<127.035 213.561>
VStem: 115.298 110<351.737 438.263>
LayerCount: 2
Fore
SplineSet
170.297851562 450 m 0
 200.653320312 450 225.297851562 425.35546875 225.297851562 395 c 0
 225.297851562 364.64453125 200.653320312 340 170.297851562 340 c 0
 139.943359375 340 115.297851562 364.64453125 115.297851562 395 c 0
 115.297851562 425.35546875 139.943359375 450 170.297851562 450 c 0
127.14453125 129.58984375 m 1
 213.452148438 99.4521484375 l 1
 88.923828125 -172.0546875 l 1
 30 -148.362304688 l 1
 127.14453125 129.58984375 l 1
EndSplineSet
Validated: 1
EndChar

StartChar: colon
Encoding: 58 58 84
Width: 170
VWidth: 950
Flags: W
HStem: 0 110<41.737 128.263> 340 110<41.737 128.263>
VStem: 30 110<11.737 98.263 351.737 438.263>
LayerCount: 2
Fore
SplineSet
85 110 m 4
 115.35546875 110 140 85.35546875 140 55 c 4
 140 24.64453125 115.35546875 0 85 0 c 4
 54.64453125 0 30 24.64453125 30 55 c 4
 30 85.35546875 54.64453125 110 85 110 c 4
85 450 m 4
 115.35546875 450 140 425.35546875 140 395 c 4
 140 364.64453125 115.35546875 340 85 340 c 4
 54.64453125 340 30 364.64453125 30 395 c 4
 30 425.35546875 54.64453125 450 85 450 c 4
EndSplineSet
Validated: 1
EndChar

StartChar: less
Encoding: 60 60 85
Width: 684
VWidth: 950
Flags: W
LayerCount: 2
Fore
SplineSet
644.349609375 596 m 1
 644.349609375 513.92578125 l 1
 144.96484375 310.23046875 l 1
 644.349609375 106.52734375 l 1
 644.349609375 24.4453125 l 1
 30 275.041015625 l 1
 30 345.412109375 l 1
 644.349609375 596 l 1
EndSplineSet
Validated: 1
EndChar

StartChar: greater
Encoding: 62 62 86
Width: 674
VWidth: 950
Flags: W
LayerCount: 2
Fore
SplineSet
40 596 m 1
 654.349609375 345.412109375 l 1
 654.349609375 275.041015625 l 1
 40 24.4453125 l 1
 40 106.52734375 l 1
 539.384765625 310.23046875 l 1
 40 513.92578125 l 1
 40 596 l 1
EndSplineSet
Validated: 1
EndChar

StartChar: equal
Encoding: 61 61 87
Width: 560
VWidth: 950
Flags: W
HStem: 148 75<30 530> 398 75<30 530.01>
LayerCount: 2
Fore
SplineSet
30 473 m 1
 530.009765625 473 l 1
 530.009765625 398 l 1
 30 398 l 1
 30 473 l 1
30 223 m 1
 530 223 l 1
 530 148 l 1
 30 148 l 1
 30 223 l 1
EndSplineSet
Validated: 1
EndChar

StartChar: at
Encoding: 64 64 88
Width: 832
VWidth: 950
Flags: W
HStem: 0 74.998<303.144 406.014> 59.1445 74.998<600.115 685.396> 198.168 76.0254<346.442 466.004> 475.801 76.0332<346.442 466.004> 674.996 75.0039<300.148 511.551>
VStem: 30 79.998<264.802 485.197> 228.596 79.8711<314.05 435.949> 503.482 79.9961<150.535 237.646 313.404 436.594 512.355 540.725> 701.693 79.998<150.535 484.036>
LayerCount: 2
Fore
SplineSet
405.849609375 750 m 0xbf80
 612.895507812 750 781.69140625 581.6875 781.69140625 375 c 2
 781.69140625 340.083984375 l 1
 781.712890625 340.083984375 l 1
 782.029296875 198.16796875 l 2
 782.029296875 121.805664062 719.146484375 59.14453125 642.755859375 59.14453125 c 0
 566.365234375 59.14453125 503.482421875 121.805664062 503.482421875 198.16796875 c 2
 503.22265625 237.646484375 l 1
 475.681640625 213.056640625 435.873046875 198.16796875 394.708984375 198.16796875 c 0
 297.25390625 198.16796875 228.595703125 278.578125 228.595703125 375 c 0
 228.595703125 471.421875 297.25390625 551.833984375 394.708984375 551.833984375 c 0
 435.872070312 551.833984375 475.681640625 536.9453125 503.22265625 512.35546875 c 1
 503.22265625 540.724609375 l 1
 583.103515625 540.724609375 l 1
 583.478515625 198.16796875 l 2
 583.478515625 165.150390625 609.491210938 134.142578125 642.755859375 134.142578125 c 0x7f80
 676.017578125 134.142578125 702.029296875 165.146484375 702.033203125 198.16015625 c 2
 701.71875 334.998046875 l 1
 701.693359375 334.998046875 l 1
 701.693359375 375 l 2
 701.693359375 538.342773438 569.76953125 674.99609375 405.849609375 674.99609375 c 0
 241.9296875 674.99609375 109.998046875 538.342773438 109.998046875 375 c 0
 109.998046875 211.657226562 241.9296875 74.998046875 405.849609375 74.998046875 c 0
 405.904296875 74.998046875 405.958984375 75 406.013671875 75 c 1
 406.013671875 0.001953125 l 1
 405.958984375 0.001953125 405.904296875 0 405.849609375 0 c 0
 198.803710938 0 30 168.3125 30 375 c 0
 30 581.6875 198.803710938 750 405.849609375 750 c 0xbf80
405.849609375 475.80078125 m 0
 351.934570312 475.80078125 308.466796875 429.16015625 308.466796875 375 c 0
 308.466796875 320.83984375 351.934570312 274.193359375 405.849609375 274.193359375 c 0
 459.764648438 274.193359375 503.22265625 320.83984375 503.22265625 375 c 0
 503.22265625 429.16015625 459.764648438 475.80078125 405.849609375 475.80078125 c 0
EndSplineSet
Validated: 1
EndChar

StartChar: bracketleft
Encoding: 91 91 89
Width: 275
VWidth: 950
Flags: W
HStem: -50 75<139.998 235.002> 725 75<139.998 235.002>
VStem: 60 175.002<-50 25 725 800> 60 79.998<25 725>
LayerCount: 2
Fore
SplineSet
60 800 m 1xe0
 139.998046875 800 l 1xd0
 235.001953125 800 l 1
 235.001953125 725 l 1xe0
 139.998046875 725 l 1
 139.998046875 25 l 1xd0
 235.001953125 25 l 1
 235.001953125 -50 l 1xe0
 139.998046875 -50 l 1xd0
 60 -50 l 1
 60 25 l 1
 60 725 l 1
 60 800 l 1xe0
EndSplineSet
Validated: 1
EndChar

StartChar: bracketright
Encoding: 93 93 90
Width: 275
VWidth: 950
Flags: W
HStem: -50 75<40 135.004> 725 75<40 135.004>
VStem: 40 175.002<-50 25 725 800> 135.004 79.998<25 725>
LayerCount: 2
Fore
SplineSet
215.001953125 800 m 1xe0
 215.001953125 725 l 1
 215.001953125 25 l 1
 215.001953125 -50 l 1xe0
 135.00390625 -50 l 1xd0
 40 -50 l 1
 40 25 l 1xe0
 135.00390625 25 l 1
 135.00390625 725 l 1xd0
 40 725 l 1
 40 800 l 1xe0
 135.00390625 800 l 1xd0
 215.001953125 800 l 1xe0
EndSplineSet
Validated: 1
EndChar

StartChar: braceleft
Encoding: 123 123 91
Width: 250
VWidth: 950
Flags: W
HStem: -50.001 74.998<167.423 210.004> 352.497 74.998<40 84.9938> 724.996 75.0039<167.423 210.004>
VStem: 85 80.0039<25.1619 352.445 427.552 724.832>
LayerCount: 2
Fore
SplineSet
185.001953125 800 m 2
 210.00390625 800 l 1
 210.00390625 724.99609375 l 1
 185.001953125 724.99609375 l 2
 173.482421875 724.99609375 165.00390625 711.517578125 165.00390625 699.998046875 c 2
 165.00390625 449.999023438 l 2
 165.00390625 427.587890625 157.421875 406.772460938 144.712890625 389.997070312 c 1
 157.421875 373.223632812 165.00390625 352.409179688 165.00390625 329.999023438 c 2
 165.00390625 49.9951171875 l 2
 165.00390625 38.4755859375 173.482421875 24.9970703125 185.001953125 24.9970703125 c 2
 210.00390625 24.9970703125 l 1
 210.00390625 -50.0009765625 l 1
 185.001953125 -50.0009765625 l 2
 130.247070312 -50.0009765625 85 -4.759765625 85 49.9951171875 c 2
 85 329.999023438 l 2
 85 341.518554688 76.521484375 352.497070312 65.001953125 352.497070312 c 2
 40 352.497070312 l 1
 40 427.495117188 l 1
 65.001953125 427.495117188 l 2
 76.521484375 427.495117188 85 438.479492188 85 449.999023438 c 2
 85 699.998046875 l 2
 85 754.752929688 130.247070312 800 185.001953125 800 c 2
EndSplineSet
Validated: 1
EndChar

StartChar: asciicircum
Encoding: 94 94 92
Width: 567
VWidth: 950
Flags: W
HStem: 417.756 332.244
LayerCount: 2
Fore
SplineSet
251.494140625 750 m 1
 315.982421875 750 l 1
 515.978515625 450 l 1
 537.474609375 417.755859375 l 1
 444.32421875 417.755859375 l 1
 283.73828125 658.642578125 l 1
 123.142578125 417.755859375 l 1
 30 417.755859375 l 1
 51.49609375 450 l 1
 251.494140625 750 l 1
EndSplineSet
Validated: 1
EndChar

StartChar: grave
Encoding: 96 96 93
Width: 276
VWidth: 950
Flags: W
HStem: 494 256
VStem: 30 216
LayerCount: 2
Fore
SplineSet
106 750 m 1
 246 532 l 1
 196 494 l 1
 30 699 l 1
 106 750 l 1
EndSplineSet
Validated: 1
EndChar

StartChar: bar
Encoding: 124 124 94
Width: 190
VWidth: 950
Flags: W
VStem: 60 70.002<-49.9941 800>
LayerCount: 2
Fore
SplineSet
60 800 m 1
 130.001953125 800 l 1
 130.001953125 746.6015625 l 1
 130.001953125 671.220703125 l 1
 130.001953125 436.04296875 l 1
 130.001953125 344.609375 l 1
 130.001953125 77.400390625 l 1
 130.001953125 3.71875 l 1
 130.001953125 -49.994140625 l 1
 60 -49.994140625 l 1
 60 2.70703125 l 1
 60 76.1171875 l 1
 60 374.787109375 l 1
 60 467.39453125 l 1
 60 675.12109375 l 1
 60 746.5546875 l 1
 60 800 l 1
EndSplineSet
Validated: 1
EndChar

StartChar: asciitilde
Encoding: 126 126 95
Width: 715
VWidth: 950
Flags: W
HStem: 260.396 75.4827<431.936 568.87> 420.982 75.0176<153.674 291.469>
VStem: 30 71<346.225 371.384> 616 69<382.169 403.435>
LayerCount: 2
Fore
SplineSet
223 496 m 2
 240 496 258 494 275 489 c 0
 326 475 370 442 396 396 c 0
 412 368 438 348 469 340 c 0
 479.651698846 337.214171071 490.303397691 335.878465022 500.743865464 335.878465022 c 0
 554.014399576 335.878465022 601.785828929 370.651698846 616 425 c 1
 685 401 l 1
 661.957157424 313.766381678 588.797003684 260.395811441 504.534583086 260.395811441 c 0
 486.407388817 260.395811441 467.766381678 262.865801239 449 268 c 0
 397 282 354 315 327 361 c 0
 311 389 285 409 254 417 c 0
 243.854958723 419.694776589 233.534025591 420.982418339 223.276186781 420.982418339 c 0
 168.822442282 420.982418339 116.146707141 384.696442453 101 330 c 1
 30 348 l 1
 53 434 130 492 215 496 c 0
 218 496 220 496 223 496 c 2
EndSplineSet
Validated: 1
EndChar

StartChar: Adieresis
Encoding: 196 196 96
Width: 682
VWidth: 950
Flags: W
HStem: 0 21G<30 119.874 562.88 652.76> 275 75<240.875 441.879> 685 110<91.737 178.263 506.117 583.883> 730.002 20G<297.665 385.095>
VStem: 80 110<696.737 783.263> 490 110<701.737 788.263>
LayerCount: 2
Fore
SplineSet
545 800 m 0xcc
 575.35546875 800 600 775.35546875 600 745 c 0
 600 714.64453125 575.35546875 690 545 690 c 0
 514.64453125 690 490 714.64453125 490 745 c 0
 490 775.35546875 514.64453125 800 545 800 c 0xcc
135 795 m 0xec
 165.35546875 795 190 770.35546875 190 740 c 0
 190 709.64453125 165.35546875 685 135 685 c 0
 104.64453125 685 80 709.64453125 80 740 c 0
 80 770.35546875 104.64453125 795 135 795 c 0xec
304.998046875 750.001953125 m 1xdc
 377.76171875 750.001953125 l 1
 652.759765625 0.001953125 l 1
 652.759765625 0 l 1
 570.212890625 0 l 1
 469.37890625 275 l 1
 213.375 275 l 1
 112.541015625 0 l 1
 30 0 l 1
 30 0.001953125 l 1
 304.998046875 750.001953125 l 1xdc
341.376953125 624.09765625 m 1
 240.875 350 l 1
 441.87890625 350 l 1
 341.376953125 624.09765625 l 1
EndSplineSet
Validated: 1
EndChar

StartChar: Odieresis
Encoding: 214 214 97
Width: 844
VWidth: 950
Flags: W
HStem: -15 75<318.687 525.313> 690 110<51.737 138.263 705.737 792.263> 690 75<318.687 525.313>
VStem: 40 110<701.737 788.263> 40 80<262.498 487.502> 694 110<701.737 788.263> 724 80<262.498 487.502>
LayerCount: 2
Fore
SplineSet
95 800 m 0xd0
 125.35546875 800 150 775.35546875 150 745 c 0
 150 714.64453125 125.35546875 690 95 690 c 0
 64.64453125 690 40 714.64453125 40 745 c 0
 40 775.35546875 64.64453125 800 95 800 c 0xd0
749 800 m 0
 779.35546875 800 804 775.35546875 804 745 c 0
 804 714.64453125 779.35546875 690 749 690 c 0
 718.64453125 690 694 714.64453125 694 745 c 0xc4
 694 775.35546875 718.64453125 800 749 800 c 0
422 765 m 0xaa
 628.662109375 765 804 581.663085938 804 375 c 0
 804 168.336914062 628.662109375 -15 422 -15 c 0
 215.336914062 -15 40 168.336914062 40 375 c 0
 40 581.663085938 215.336914062 765 422 765 c 0xaa
422 690 m 0
 255.870117188 690 120 541.129882812 120 375 c 0
 120 208.870117188 255.870117188 60 422 60 c 0
 588.129882812 60 724 208.870117188 724 375 c 0
 724 541.129882812 588.129882812 690 422 690 c 0
EndSplineSet
Validated: 1
EndChar

StartChar: Udieresis
Encoding: 220 220 98
Width: 696
VWidth: 950
Flags: W
HStem: -15 74.998<236.091 459.926> 684.998 110<204.735 291.261 409.115 486.881> 730 20G<60 139.998 556.004 636.002>
VStem: 60 79.998<162.389 750> 192.998 110<696.735 783.261> 392.998 110<701.735 788.261> 556.002 79.998<162.389 750>
LayerCount: 2
Fore
SplineSet
447.998046875 799.998046875 m 0x9e
 478.353515625 799.998046875 502.998046875 775.353515625 502.998046875 744.998046875 c 0
 502.998046875 714.642578125 478.353515625 689.998046875 447.998046875 689.998046875 c 0
 417.642578125 689.998046875 392.998046875 714.642578125 392.998046875 744.998046875 c 0
 392.998046875 775.353515625 417.642578125 799.998046875 447.998046875 799.998046875 c 0x9e
247.998046875 794.998046875 m 0xde
 278.353515625 794.998046875 302.998046875 770.353515625 302.998046875 739.998046875 c 0
 302.998046875 709.642578125 278.353515625 684.998046875 247.998046875 684.998046875 c 0
 217.642578125 684.998046875 192.998046875 709.642578125 192.998046875 739.998046875 c 0
 192.998046875 770.353515625 217.642578125 794.998046875 247.998046875 794.998046875 c 0xde
60 750 m 1xbe
 139.998046875 750 l 1
 139.998046875 247.498046875 l 1
 140 247.498046875 l 1
 140 153.135742188 215.637695312 59.998046875 310 59.998046875 c 2
 385.99609375 59.998046875 l 2
 480.404296875 59.998046875 556.001953125 153.133789062 556.001953125 247.49609375 c 2
 556.00390625 750 l 1
 636.001953125 750 l 1
 636 249.99609375 l 2
 635.999023438 112.3984375 523.59375 -15 385.99609375 -15 c 2
 310 -15 l 1
 310 -15.001953125 l 1
 172.403320312 -15.001953125 60.0009765625 112.399414062 60 249.99609375 c 2
 60 249.998046875 l 1
 60 750 l 1xbe
EndSplineSet
Validated: 1
EndChar

StartChar: adieresis
Encoding: 228 228 99
Width: 535
VWidth: 950
Flags: W
HStem: -15 75<185.159 324.644> 0 21G<400 480> 375 75<185.159 325.987> 505 110<96.8467 183.153 301.25 378.75>
VStem: 30 80<139.307 296.495> 85 110<516.847 603.153> 285 110<521.847 608.153> 400 80<0 65 138.852 296.875 375 435>
LayerCount: 2
Fore
SplineSet
340 620 m 0x33
 370 620 395 595 395 565 c 0
 395 535 370 510 340 510 c 0
 310 510 285 535 285 565 c 0
 285 595 310 620 340 620 c 0x33
140 615 m 0
 170 615 195 590 195 560 c 0
 195 530 170 505 140 505 c 0
 110 505 85 530 85 560 c 0x37
 85 590 110 615 140 615 c 0
240 450 m 0
 305 450 369 420 400 375 c 1
 400 435 l 1
 480 435 l 1
 480 0 l 1
 400 0 l 1x7b
 400 65 l 1
 369 20 305 -15 240 -15 c 0
 116 -15 30 94 30 218 c 0xbb
 30 342 116 450 240 450 c 0
255 375 m 0
 174 375 110 299 110 218 c 0
 110 137 174 60 255 60 c 0xbb
 336 60 400 137 400 218 c 0
 400 299 336 375 255 375 c 0
EndSplineSet
Validated: 1
EndChar

StartChar: odieresis
Encoding: 246 246 100
Width: 524
VWidth: 950
Flags: W
HStem: -15 75<187.975 336.025> 375 75<187.975 336.025> 505 110<111.847 198.153 330.25 407.75>
VStem: 30 80<140.505 295.307> 100 110<516.847 603.153> 314 110<521.847 608.153> 414 80<140.505 295.307>
LayerCount: 2
Fore
SplineSet
369 620 m 0xe4
 399 620 424 595 424 565 c 0
 424 535 399 510 369 510 c 0
 339 510 314 535 314 565 c 0
 314 595 339 620 369 620 c 0xe4
155 615 m 0
 185 615 210 590 210 560 c 0
 210 530 185 505 155 505 c 0
 125 505 100 530 100 560 c 0xe8
 100 590 125 615 155 615 c 0
262 450 m 0
 386 450 494 342 494 218 c 0
 494 94 386 -15 262 -15 c 0
 138 -15 30 94 30 218 c 0xf2
 30 342 138 450 262 450 c 0
262 375 m 0
 179 375 110 301 110 218 c 0
 110 135 179 60 262 60 c 0
 345 60 414 135 414 218 c 0
 414 301 345 375 262 375 c 0
EndSplineSet
Validated: 1
EndChar

StartChar: udieresis
Encoding: 252 252 101
Width: 504
VWidth: 950
Flags: W
HStem: -15 75<174.124 329.876> 430 20G<55 135 369 449> 505 110<108.847 195.153 313.25 390.75>
VStem: 55 80<101.183 450> 97 110<516.847 603.153> 297 110<521.847 608.153> 369 80<101.183 450>
LayerCount: 2
Fore
SplineSet
352 620 m 0xe4
 382 620 407 595 407 565 c 0
 407 535 382 510 352 510 c 0
 322 510 297 535 297 565 c 0
 297 595 322 620 352 620 c 0xe4
152 615 m 0
 182 615 207 590 207 560 c 0
 207 530 182 505 152 505 c 0
 122 505 97 530 97 560 c 0xe8
 97 590 122 615 152 615 c 0
55 450 m 5xf2
 135 450 l 5
 135 175 l 6
 135 105 177 60 230 60 c 6
 274 60 l 6
 327 60 369 105 369 175 c 6
 369 450 l 5
 449 450 l 5
 449 175 l 6
 449 60 370 -15 274 -15 c 6
 230 -15 l 6
 134 -15 55 60 55 175 c 6
 55 450 l 5xf2
EndSplineSet
Validated: 1
EndChar

StartChar: germandbls
Encoding: 223 223 102
Width: 590
Flags: W
HStem: -15 75<267 397.16> 0 21G<60 140> 352 75<267 335.006> 690 75<206.115 327.885>
VStem: 60 80<0 620.423> 394 80<483.965 620.658> 470 80<133.82 279.878>
LayerCount: 2
Fore
SplineSet
267 765 m 0x7c
 377 765 474 660 474 550 c 0x7c
 474 497 443 443 409 407 c 1
 486 374 550 296 550 208 c 0
 550 90 446 -15 328 -15 c 2
 267 -15 l 1
 267 60 l 1
 321 60 l 1
 328 60 l 1
 403 60 470 133 470 208 c 0xba
 470 283 403 352 328 352 c 2
 267 352 l 1
 267 401 l 1
 267 413 l 1
 267 427 l 1
 334 427 394 483 394 550 c 0
 394 617 334 690 267 690 c 0
 200 690 140 617 140 550 c 2
 140 0 l 1
 60 0 l 1
 60 550 l 2
 60 660 157 765 267 765 c 0x7c
EndSplineSet
Validated: 1
EndChar

StartChar: agrave
Encoding: 224 224 103
Width: 535
Flags: W
HStem: -15 75<185.159 324.644> 0 21G<400 480> 375 75<185.159 325.987> 730 20G<190.196 232.021>
VStem: 30 80<139.307 296.495> 400 80<0 60 138.852 296.875 375 435>
LayerCount: 2
Fore
SplineSet
220 750 m 1x3c
 336 557 l 1
 285 519 l 1
 144 699 l 1
 220 750 l 1x3c
240 450 m 0
 305 450 369 420 400 375 c 1
 400 435 l 1
 480 435 l 1
 480 0 l 1
 400 0 l 1x7c
 400 60 l 1
 369 15 305 -15 240 -15 c 0xbc
 116 -15 30 94 30 218 c 0
 30 342 116 450 240 450 c 0
255 375 m 0
 174 375 110 299 110 218 c 0
 110 137 174 60 255 60 c 0xbc
 336 60 400 137 400 218 c 0
 400 299 336 375 255 375 c 0
EndSplineSet
Validated: 1
EndChar

StartChar: aacute
Encoding: 225 225 104
Width: 535
Flags: W
HStem: -15 75<185.159 324.644> 0 21G<400 480> 375 75<185.159 325.987> 730 20G<247.979 289.804>
VStem: 30 80<139.307 296.495> 400 80<0 60 138.852 296.875 375 435>
LayerCount: 2
Fore
SplineSet
240 450 m 0xbc
 305 450 369 420 400 375 c 1
 400 435 l 1
 480 435 l 1
 480 0 l 1
 400 0 l 1x7c
 400 60 l 1
 369 15 305 -15 240 -15 c 0
 116 -15 30 94 30 218 c 0
 30 342 116 450 240 450 c 0xbc
255 375 m 0
 174 375 110 299 110 218 c 0
 110 137 174 60 255 60 c 0xbc
 336 60 400 137 400 218 c 0
 400 299 336 375 255 375 c 0
260 750 m 1
 336 699 l 1
 195 519 l 1
 144 557 l 1
 260 750 l 1
EndSplineSet
Validated: 1
EndChar

StartChar: egrave
Encoding: 232 232 105
Width: 510
Flags: W
HStem: -15 67<193.534 330.311> 218 60<121 401> 383 67<189.061 328.404> 730 20G<205.196 247.021>
VStem: 30 80<140.118 218>
LayerCount: 2
Fore
SplineSet
262 450 m 0
 386 450 480 338 480 242 c 2
 480 218 l 1
 446 218 l 1
 414 218 l 1
 110 218 l 1
 110 137 179 52 260 52 c 0
 314 52 370 94 401 138 c 1
 466 103 l 1
 427 35 345 -15 262 -15 c 0
 138 -15 30 94 30 218 c 0
 30 342 138 450 262 450 c 0
258 383 m 0
 198 383 142 333 121 278 c 1
 401 278 l 1
 378 333 318 383 258 383 c 0
235 750 m 1
 351 557 l 1
 300 519 l 1
 159 699 l 1
 235 750 l 1
EndSplineSet
Validated: 1
EndChar

StartChar: eacute
Encoding: 233 233 106
Width: 510
Flags: W
HStem: -15 67<193.534 330.311> 218 60<121 401> 383 67<189.061 328.404> 730 20G<262.979 304.804>
VStem: 30 80<140.118 218>
LayerCount: 2
Fore
SplineSet
262 450 m 0
 386 450 480 338 480 242 c 2
 480 218 l 1
 446 218 l 1
 414 218 l 1
 110 218 l 1
 110 137 179 52 260 52 c 0
 314 52 370 94 401 138 c 1
 466 103 l 1
 427 35 345 -15 262 -15 c 0
 138 -15 30 94 30 218 c 0
 30 342 138 450 262 450 c 0
258 383 m 0
 198 383 142 333 121 278 c 1
 401 278 l 1
 378 333 318 383 258 383 c 0
275 750 m 1
 351 699 l 1
 210 519 l 1
 159 557 l 1
 275 750 l 1
EndSplineSet
Validated: 1
EndChar

StartChar: ograve
Encoding: 242 242 107
Width: 524
Flags: W
HStem: -15 75<187.975 336.025> 375 75<187.975 336.025> 730 20G<212.196 254.021>
VStem: 30 80<140.505 295.307> 414 80<140.505 295.307>
LayerCount: 2
Fore
SplineSet
242 750 m 1
 358 557 l 1
 307 519 l 1
 166 699 l 1
 242 750 l 1
262 450 m 0
 386 450 494 342 494 218 c 0
 494 94 386 -15 262 -15 c 0
 138 -15 30 94 30 218 c 0
 30 342 138 450 262 450 c 0
262 375 m 0
 179 375 110 301 110 218 c 0
 110 135 179 60 262 60 c 0
 345 60 414 135 414 218 c 0
 414 301 345 375 262 375 c 0
EndSplineSet
Validated: 1
EndChar

StartChar: oacute
Encoding: 243 243 108
Width: 524
Flags: W
HStem: -15 75<187.975 336.025> 375 75<187.975 336.025> 730 20G<262.979 304.804>
VStem: 30 80<140.505 295.307> 414 80<140.505 295.307>
LayerCount: 2
Fore
SplineSet
275 750 m 1
 351 699 l 1
 210 519 l 1
 159 557 l 1
 275 750 l 1
262 450 m 0
 386 450 494 342 494 218 c 0
 494 94 386 -15 262 -15 c 0
 138 -15 30 94 30 218 c 0
 30 342 138 450 262 450 c 0
262 375 m 0
 179 375 110 301 110 218 c 0
 110 135 179 60 262 60 c 0
 345 60 414 135 414 218 c 0
 414 301 345 375 262 375 c 0
EndSplineSet
Validated: 1
EndChar

StartChar: ugrave
Encoding: 249 249 109
Width: 504
VWidth: 950
Flags: W
HStem: -15 75<174.124 329.876> 430 20G<55 135 369 449> 730 20G<205.196 247.021>
VStem: 55 80<101.183 450> 369 80<101.183 450>
LayerCount: 2
Fore
SplineSet
235 750 m 1
 351 557 l 1
 300 519 l 1
 159 699 l 1
 235 750 l 1
55 450 m 1
 135 450 l 1
 135 175 l 2
 135 105 177 60 230 60 c 2
 274 60 l 2
 327 60 369 105 369 175 c 2
 369 450 l 1
 449 450 l 1
 449 175 l 2
 449 60 370 -15 274 -15 c 2
 230 -15 l 2
 134 -15 55 60 55 175 c 2
 55 450 l 1
EndSplineSet
Validated: 1
EndChar

StartChar: uacute
Encoding: 250 250 110
Width: 504
VWidth: 950
Flags: W
HStem: -15 75<174.124 329.876> 430 20G<55 135 369 449> 730 20G<262.979 304.804>
VStem: 55 80<101.183 450> 369 80<101.183 450>
LayerCount: 2
Fore
SplineSet
275 750 m 1
 351 699 l 1
 210 519 l 1
 159 557 l 1
 275 750 l 1
55 450 m 1
 135 450 l 1
 135 175 l 2
 135 105 177 60 230 60 c 2
 274 60 l 2
 327 60 369 105 369 175 c 2
 369 450 l 1
 449 450 l 1
 449 175 l 2
 449 60 370 -15 274 -15 c 2
 230 -15 l 2
 134 -15 55 60 55 175 c 2
 55 450 l 1
EndSplineSet
Validated: 1
EndChar

StartChar: iacute
Encoding: 237 237 111
Width: 230
VWidth: 950
Flags: W
HStem: 0 21G<75 155> 730 20G<125.979 167.804>
VStem: 75 80<0 435>
LayerCount: 2
Fore
SplineSet
138 750 m 1
 214 699 l 1
 73 519 l 1
 22 557 l 1
 138 750 l 1
75 435 m 1
 155 435 l 1
 155 0 l 1
 75 0 l 1
 75 435 l 1
EndSplineSet
Validated: 1
EndChar

StartChar: igrave
Encoding: 236 236 112
Width: 230
VWidth: 950
Flags: W
HStem: 0 21G<75 155> 730 20G<67.1961 109.021>
VStem: 75 80<0 435>
LayerCount: 2
Fore
SplineSet
97 750 m 1
 213 557 l 1
 162 519 l 1
 21 699 l 1
 97 750 l 1
75 435 m 1
 155 435 l 1
 155 0 l 1
 75 0 l 1
 75 435 l 1
EndSplineSet
Validated: 1
EndChar

StartChar: Agrave
Encoding: 192 192 113
Width: 682
VWidth: 950
Flags: W
HStem: 0 21G<30 120.273 562.655 653> 275 75<241 442> 730 20G<297.667 423.5>
LayerCount: 2
Fore
SplineSet
317 1031 m 1
 433 838 l 1
 382 800 l 1
 241 980 l 1
 317 1031 l 1
305 750 m 1
 378 750 l 1
 469 500 561 250 653 0 c 1
 570 0 l 1
 469 275 l 1
 213 275 l 1
 113 0 l 1
 113 0 30 0 30 0 c 1
 305 750 l 1
341 624 m 1
 241 350 l 1
 442 350 l 1
 341 624 l 1
EndSplineSet
Validated: 1
EndChar

StartChar: Aacute
Encoding: 193 193 114
Width: 682
VWidth: 950
Flags: W
HStem: 0 21G<30 120.273 562.655 653> 275 75<241 442> 730 20G<297.667 423.5>
LayerCount: 2
Fore
SplineSet
367 1031 m 1
 443 980 l 1
 302 800 l 1
 251 838 l 1
 367 1031 l 1
305 750 m 1
 378 750 l 1
 469 500 561 250 653 0 c 1
 570 0 l 1
 469 275 l 1
 213 275 l 1
 113 0 l 1
 113 0 30 0 30 0 c 1
 305 750 l 1
341 624 m 1
 241 350 l 1
 442 350 l 1
 341 624 l 1
EndSplineSet
Validated: 1
EndChar

StartChar: Ograve
Encoding: 210 210 115
Width: 824
VWidth: 950
Flags: W
HStem: -15 75<308.653 515.347> 690 75<308.653 515.347>
VStem: 30 80<262.462 487.538> 714 80<262.462 487.538>
LayerCount: 2
Fore
SplineSet
371 1031 m 1
 487 838 l 1
 436 800 l 1
 295 980 l 1
 371 1031 l 1
412 765 m 0
 619 765 794 582 794 375 c 0
 794 168 619 -15 412 -15 c 0
 205 -15 30 168 30 375 c 0
 30 582 205 765 412 765 c 0
412 690 m 0
 246 690 110 541 110 375 c 0
 110 209 246 60 412 60 c 0
 578 60 714 209 714 375 c 0
 714 541 578 690 412 690 c 0
EndSplineSet
Validated: 1
EndChar

StartChar: Oacute
Encoding: 211 211 116
Width: 824
VWidth: 950
Flags: W
HStem: -15 75<308.653 515.347> 690 75<308.653 515.347>
VStem: 30 80<262.462 487.538> 714 80<262.462 487.538>
LayerCount: 2
Fore
SplineSet
442 1031 m 1
 518 980 l 1
 377 800 l 1
 326 838 l 1
 442 1031 l 1
412 765 m 0
 619 765 794 582 794 375 c 0
 794 168 619 -15 412 -15 c 0
 205 -15 30 168 30 375 c 0
 30 582 205 765 412 765 c 0
412 690 m 0
 246 690 110 541 110 375 c 0
 110 209 246 60 412 60 c 0
 578 60 714 209 714 375 c 0
 714 541 578 690 412 690 c 0
EndSplineSet
Validated: 1
EndChar

StartChar: Igrave
Encoding: 204 204 117
Width: 200
VWidth: 950
Flags: W
HStem: 0 21G<60 140> 730 20G<60 140>
VStem: 60 80<0 750>
LayerCount: 2
Fore
SplineSet
79 1031 m 1
 195 838 l 1
 144 800 l 1
 3 980 l 1
 79 1031 l 1
140 750 m 1
 140 0 l 1
 60 0 l 1
 60 750 l 1
 140 750 l 1
EndSplineSet
Validated: 1
EndChar

StartChar: Iacute
Encoding: 205 205 118
Width: 200
VWidth: 950
Flags: W
HStem: 0 21G<60 140> 730 20G<60 140>
VStem: 60 80<0 750>
LayerCount: 2
Fore
SplineSet
121 1031 m 1
 197 980 l 1
 56 800 l 1
 5 838 l 1
 121 1031 l 1
140 750 m 1
 140 0 l 1
 60 0 l 1
 60 750 l 1
 140 750 l 1
EndSplineSet
Validated: 1
EndChar

StartChar: Egrave
Encoding: 200 200 119
Width: 500
VWidth: 950
Flags: W
HStem: 0 75<140 460> 375 75<140 460> 675 75<140 460>
VStem: 60 80<75 375 450 675>
LayerCount: 2
Fore
SplineSet
230 1031 m 1
 346 838 l 1
 295 800 l 1
 154 980 l 1
 230 1031 l 1
60 750 m 1
 140 750 l 1
 460 750 l 1
 460 675 l 1
 140 675 l 1
 140 450 l 1
 460 450 l 1
 460 375 l 1
 140 375 l 1
 140 75 l 1
 460 75 l 1
 460 0 l 1
 140 0 l 1
 60 0 l 1
 60 75 l 1
 60 375 l 1
 60 450 l 1
 60 675 l 1
 60 750 l 1
EndSplineSet
Validated: 1
EndChar

StartChar: Eacute
Encoding: 201 201 120
Width: 500
VWidth: 950
Flags: W
HStem: 0 75<140 460> 375 75<140 460> 675 75<140 460>
VStem: 60 80<75 375 450 675>
LayerCount: 2
Fore
SplineSet
269 1031 m 1
 345 980 l 1
 204 800 l 1
 153 838 l 1
 269 1031 l 1
60 750 m 1
 140 750 l 1
 460 750 l 1
 460 675 l 1
 140 675 l 1
 140 450 l 1
 460 450 l 1
 460 375 l 1
 140 375 l 1
 140 75 l 1
 460 75 l 1
 460 0 l 1
 140 0 l 1
 60 0 l 1
 60 75 l 1
 60 375 l 1
 60 450 l 1
 60 675 l 1
 60 750 l 1
EndSplineSet
Validated: 1
EndChar

StartChar: Ugrave
Encoding: 217 217 121
Width: 696
VWidth: 950
Flags: W
HStem: -15 75<236.249 459.751> 730 20G<60 140 556 636>
VStem: 60 80<162.231 750> 556 80<162.231 750>
LayerCount: 2
Fore
SplineSet
317 1031 m 1
 433 838 l 1
 382 800 l 1
 241 980 l 1
 317 1031 l 1
60 750 m 1
 140 750 l 1
 140 257 l 5
 140 247 l 1
 140 153 216 60 310 60 c 2
 386 60 l 2
 480 60 556 153 556 247 c 2
 556 750 l 1
 636 750 l 1
 636 250 l 2
 636 112 524 -15 386 -15 c 2
 337 -15 l 1
 310 -15 l 1
 172 -15 60 112 60 250 c 2
 60 260 l 1
 60 750 l 1
EndSplineSet
Validated: 1
EndChar

StartChar: Uacute
Encoding: 218 218 122
Width: 696
VWidth: 950
Flags: W
HStem: -15 75<236.249 459.751> 730 20G<60 140 556 636>
VStem: 60 80<162.231 750> 556 80<162.231 750>
LayerCount: 2
Fore
SplineSet
367 1031 m 1
 443 980 l 1
 302 800 l 1
 251 838 l 1
 367 1031 l 1
60 750 m 1
 140 750 l 1
 140 253 l 1
 140 247 l 1
 140 153 216 60 310 60 c 2
 386 60 l 2
 480 60 556 153 556 247 c 2
 556 750 l 1
 636 750 l 1
 636 250 l 2
 636 112 524 -15 386 -15 c 2
 317 -15 l 5
 310 -15 l 1
 172 -15 60 112 60 250 c 2
 60 255 l 1
 60 750 l 1
EndSplineSet
Validated: 1
EndChar

StartChar: mu
Encoding: 181 181 123
Width: 504
Flags: W
HStem: -16 75<173.548 329.876>
VStem: 55 80<-200 8 98.7485 435> 369 80<101.044 435>
LayerCount: 2
Fore
SplineSet
91 435 m 1
 120 435 l 1
 135 435 l 1
 135 175 l 2
 135 105 177 59 230 59 c 2
 274 59 l 2
 327 59 369 105 369 175 c 2
 369 435 l 1
 449 435 l 5
 449 175 l 2
 449 60 370 -16 274 -16 c 2
 230 -16 l 2
 195 -16 162 -8 135 8 c 1
 135 -200 l 1
 55 -200 l 1
 55 173 l 1
 55 435 l 1
 91 435 l 1
EndSplineSet
Validated: 1
EndChar

StartChar: acute
Encoding: 180 180 124
Width: 274
VWidth: 950
Flags: W
HStem: 495 255
VStem: 30 214
LayerCount: 2
Fore
SplineSet
169 750 m 1
 244 699 l 1
 81 495 l 1
 30 533 l 1
 169 750 l 1
EndSplineSet
Validated: 1
EndChar

StartChar: periodcentered
Encoding: 183 183 125
Width: 170
Flags: W
HStem: 340 110<41.8467 128.153>
VStem: 30 110<351.847 438.153>
LayerCount: 2
Fore
SplineSet
85 450 m 0
 115 450 140 425 140 395 c 0
 140 365 115 340 85 340 c 0
 55 340 30 365 30 395 c 0
 30 425 55 450 85 450 c 0
EndSplineSet
Validated: 1
EndChar

StartChar: thorn
Encoding: 254 254 126
Width: 540
Flags: W
HStem: -15 75<215.356 354.841> 375 75<214.013 354.841>
VStem: 60 80<-200 60 138.852 296.875 375 680> 430 80<139.307 296.495>
LayerCount: 2
Fore
SplineSet
300 450 m 0
 424 450 510 342 510 218 c 0
 510 94 424 -15 300 -15 c 0
 235 -15 171 15 140 60 c 1
 140 -200 l 1
 60 -200 l 1
 60 680 l 1
 140 680 l 1
 140 375 l 1
 171 420 235 450 300 450 c 0
285 375 m 0
 204 375 140 299 140 218 c 0
 140 137 204 60 285 60 c 0
 366 60 430 137 430 218 c 0
 430 299 366 375 285 375 c 0
EndSplineSet
Validated: 1
EndChar

StartChar: Oslash
Encoding: 216 216 127
Width: 867
Flags: W
HStem: -15 76<330.847 540.472> 0 21G<0 128.247> 690 75<333.653 543.508> 730 20G<736.74 867>
VStem: 55 80<262.217 487.538> 742 80<262.532 486.162>
LayerCount: 2
Fore
SplineSet
757 750 m 1x1c
 867 750 l 1
 839 723 l 1
 733 618 l 1
 788 550 822 465 822 375 c 0
 822 168 643 -15 437 -15 c 0x9c
 344 -15 257 22 190 81 c 1
 108 0 l 1
 71 0 58 0 21 0 c 2
 0 0 l 1
 27 27 l 1
 138 137 l 1
 86 204 55 287 55 375 c 0
 55 582 230 765 437 765 c 0x6c
 527 765 612 730 679 673 c 1
 757 750 l 1x1c
437 690 m 0x2c
 271 690 135 541 135 375 c 0
 135 308 157 245 194 192 c 1
 625 620 l 1
 573 663 507 690 437 690 c 0x2c
678 564 m 1
 245 135 l 1
 297 89 364 61 437 61 c 0x8c
 603 61 742 209 742 375 c 0
 742 444 718 510 678 564 c 1
EndSplineSet
Validated: 8388609
EndChar

StartChar: oslash
Encoding: 248 248 128
Width: 579
Flags: W
HStem: -15 75<215.114 364.025> 0 21G<10 140> 375 75<215.975 363.447>
VStem: 58 80<146.559 295.307> 442 80<140.505 296.915>
LayerCount: 2
Fore
SplineSet
460 450 m 1x78
 570 450 l 1
 542 423 l 1
 474 355 l 1
 504 316 522 268 522 218 c 0
 522 94 414 -15 290 -15 c 0xb8
 240 -15 192 3 153 33 c 1
 120 0 l 1
 10 0 l 1
 37 27 l 1
 99 89 l 1
 73 127 58 171 58 218 c 0
 58 342 166 450 290 450 c 0
 337 450 381 435 419 409 c 1
 460 450 l 1x78
290 375 m 0
 207 375 138 301 138 218 c 0
 138 193 144 168 156 146 c 1
 364 354 l 1
 342 367 317 375 290 375 c 0
419 299 m 1
 207 87 l 1
 231 70 259 60 290 60 c 0
 373 60 442 135 442 218 c 0
 442 247 433 275 419 299 c 1
EndSplineSet
Validated: 8388609
EndChar

StartChar: multiply
Encoding: 215 215 129
Width: 451
Flags: W
LayerCount: 2
Fore
SplineSet
358 563 m 1
 411 510 l 1
 277 376 l 1
 409 243 l 1
 360 194 l 1
 227 326 l 1
 93 192 l 1
 40 245 l 1
 174 379 l 1
 42 512 l 1
 91 561 l 1
 224 429 l 1
 358 563 l 1
EndSplineSet
Validated: 1
EndChar

StartChar: divide
Encoding: 247 247 130
Width: 530
Flags: W
HStem: 150 110<221.847 308.153> 340 70<40 490> 490 110<221.847 308.153>
VStem: 210 110<161.847 248.153 501.847 588.153>
CounterMasks: 1 e0
LayerCount: 2
Fore
SplineSet
40 410 m 1
 490 410 l 1
 490 340 l 1
 40 340 l 1
 40 410 l 1
265 600 m 0
 295 600 320 575 320 545 c 0
 320 515 295 490 265 490 c 0
 235 490 210 515 210 545 c 0
 210 575 235 600 265 600 c 0
265 260 m 0
 295 260 320 235 320 205 c 0
 320 175 295 150 265 150 c 0
 235 150 210 175 210 205 c 0
 210 235 235 260 265 260 c 0
EndSplineSet
Validated: 1
EndChar

StartChar: glyph138
Encoding: 258 8364 132
Width: 756
VWidth: 0
Flags: W
HStem: -15 75<375.418 596.693> 243 75<31 109 212 530> 432 75<30 109 212 530> 690 75<375.418 596.693>
VStem: 105 80<318 432>
LayerCount: 2
Fore
SplineSet
480 765 m 0
 570 765 653 733 717 680 c 1
 717 575 l 1
 664 648 579 690 480 690 c 0
 359 690 257 610 212 507 c 1
 530 507 l 1
 530 432 l 1
 189 432 l 1
 187 416 185 392 185 375 c 0
 185 358 187 334 189 318 c 1
 530 318 l 1
 530 243 l 1
 212 243 l 1
 257 140 359 60 480 60 c 0
 579 60 664 102 717 175 c 1
 717 70 l 1
 653 17 570 -15 480 -15 c 0
 318 -15 178 98 127 243 c 1
 31 243 l 1
 31 318 l 1
 109 318 l 1
 107 334 105 358 105 375 c 0
 105 392 107 416 109 432 c 1
 30 432 l 1
 30 507 l 1
 127 507 l 1
 178 652 318 765 480 765 c 0
EndSplineSet
Validated: 1
EndChar

StartChar: Thorn
Encoding: 222 222 133
Width: 508
Flags: WO
HStem: 0 21G<60 140> 250 75<140 344.013> 575 77<140 341.969>
VStem: 60 80<0 250 325 575 652 800> 398 80<379.999 519.332>
LayerCount: 2
Fore
SplineSet
60 800 m 1
 140 800 l 1
 140 652 l 1
 237 652 l 1
 263 652 l 1
 278 652 l 2
 388 652 478 561 478 450 c 0
 478 389 451 334 408 297 c 0
 365 262 326 252 253 250 c 2
 140 250 l 1
 140 75 l 1
 140 0 l 1
 60 0 l 1
 60 800 l 1
140 575 m 1
 140 325 l 1
 259 325 l 1
 278 325 l 2
 344 325 398 382 398 450 c 0
 398 518 344 575 278 575 c 2
 263 575 l 1
 237 575 l 1
 140 575 l 1
EndSplineSet
Validated: 1
EndChar
